<?xml version="1.0" encoding="UTF-8" standalone="no"?>
<svg
        xmlns:dc="http://purl.org/dc/elements/1.1/"
        xmlns:cc="http://creativecommons.org/ns#"
        xmlns:rdf="http://www.w3.org/1999/02/22-rdf-syntax-ns#"
        xmlns="http://www.w3.org/2000/svg"
        xmlns:sodipodi="http://sodipodi.sourceforge.net/DTD/sodipodi-0.dtd"
        xmlns:inkscape="http://www.inkscape.org/namespaces/inkscape"
        viewBox="0 0 1920.0001 1080"
        version="1.1"
        id="svg1010"
        sodipodi:docname="home_sparanzza.svg"
        inkscape:version="1.0.1 (3bc2e813f5, 2020-09-07)"
        width="1920"
        height="1080">
  <metadata
     id="metadata1014">
    <rdf:RDF>
      <cc:Work
         rdf:about="">
        <dc:format>image/svg+xml</dc:format>
        <dc:type
           rdf:resource="http://purl.org/dc/dcmitype/StillImage" />
        <dc:title></dc:title>
      </cc:Work>
    </rdf:RDF>
  </metadata>
  <sodipodi:namedview
     pagecolor="#ffffff"
     bordercolor="#666666"
     borderopacity="1"
     objecttolerance="10"
     gridtolerance="10"
     guidetolerance="10"
     inkscape:pageopacity="0"
     inkscape:pageshadow="2"
     inkscape:window-width="1282"
     inkscape:window-height="1051"
     id="namedview1012"
     showgrid="false"
     inkscape:zoom="0.27185154"
     inkscape:cx="862.52584"
     inkscape:cy="861.17952"
     inkscape:window-x="0"
     inkscape:window-y="0"
     inkscape:window-maximized="0"
     inkscape:current-layer="LETRAS" />
  <defs
     id="defs4">
    <style
       id="style2">.cls-1,.cls-14,.cls-18,.cls-8{fill:#0f0d22;}.cls-15,.cls-2,.cls-4,.cls-9{fill:#4dfbff;}.cls-15,.cls-2,.cls-9{stroke:#00dbdb;}.cls-12,.cls-13,.cls-15,.cls-17,.cls-18,.cls-2,.cls-20,.cls-7,.cls-9{stroke-miterlimit:10;}.cls-12,.cls-2{stroke-width:3px;}.cls-20,.cls-3{fill:#fff;}.cls-12,.cls-13,.cls-17,.cls-5,.cls-7{fill:#ff008c;}.cls-6{fill:#202035;}.cls-12,.cls-17,.cls-18,.cls-7{stroke:#fff;}.cls-13,.cls-18,.cls-20,.cls-7{stroke-width:4px;}.cls-8{font-size:34.08px;letter-spacing:0.1em;}.cls-14,.cls-8{font-family:GN-KMBFont-UB-NewstyleKanaB;}.cls-11,.cls-9{letter-spacing:0.1em;}.cls-10{letter-spacing:0.1em;}.cls-11,.cls-16,.cls-18,.cls-20{font-family:BritannicBold, Britannic Bold;}.cls-13,.cls-20{stroke:#0f0d22;}.cls-14{font-size:129.291px;letter-spacing:0.1em;}.cls-15{letter-spacing:0.1em;}.cls-16{letter-spacing:0.1em;}.cls-17{stroke-width:7px;}.cls-18,.cls-20{font-size:164.609px;letter-spacing:0.1em;}.cls-19{fill:#3aadad;}</style>
  </defs>
  <g
     id="LOGO_WHITE"
     data-name="LOGO WHITE">
    <g
       id="LETRAS">
      <path
         class="cls-1"
         d="m 678.5377,548.97697 0.5942,62.42607 c 0,0 20.2048,28.55147 43.6945,49.43788 0,0 0,8.44632 -9.1195,13.51374 -9.1195,5.06742 -34.5346,22.07006 -34.5346,22.07006 v 47.94774 l 12.0574,-9.11947 -3.5105,59.68083 c 0,0 10.8117,19.00141 33.5427,38.54622 l 4.9584,-118.79287 c 0,0 39.9057,-34.24033 42.9254,-40.78284 3.0198,-6.54252 5.9559,-19.96318 2.2649,-27.00868 a 967.49229,967.49229 0 0 1 -92.8729,-97.91868 z"
         id="path6"
         style="stroke-width:0.940152" />
      <path
         class="cls-1"
         d="m 781.7447,655.3824 c 0,0 -1.2222,104.29479 -1.2222,119.49329 0,15.19849 -4.8671,28.84667 -16.6604,30.38476 -13.6322,1.77783 -26.595,-4.19966 -26.595,-4.19966 v 42.49486 c 0,0 2.4246,4.00411 10.855,7.50993 10.1715,4.23069 40.5327,3.54249 51.0916,-22.30322 7.5494,-28.12276 7.3614,-152.77465 7.3614,-152.77465 z"
         id="path8"
         style="stroke-width:0.940152" />
      <path
         class="cls-1"
         d="m 816.6338,682.31117 -3.692,152.77465 c 0,0 0.5095,26.58279 10.2175,45.63685 15.5332,30.49006 49.452,37.5224 49.452,37.5224 v -47.69672 c 0,0 -30.113,-11.29405 -29.8968,-45.22788 0.1025,-15.90925 0.8678,-124.7431 0.8678,-124.7431 z"
         id="path10"
         style="stroke-width:0.940152" />
      <path
         class="cls-1"
         d="m 1059.5586,728.50646 v 51.38305 c 0,0 -50.4918,24.21079 -85.1777,24.21079 -34.686,0 -87.013,-24.21079 -87.013,-24.21079 v -53.11857 c 0,0 71.6866,33.23625 86.6379,33.23625 14.9512,0 85.5528,-31.50073 85.5528,-31.50073 z"
         id="path12"
         style="stroke-width:0.940152" />
      <path
         class="cls-1"
         d="m 887.3651,795.3174 c 0,0 38.9938,20.73317 86.4301,20.73317 47.4363,0 85.7634,-19.47712 85.7634,-19.47712 0,0 2.356,25.91716 0,81.83645 -11.6663,57.4301 -84.6635,59.32357 -152.9909,48.16867 v -45.59736 c 0,0 29.0582,6.70234 52.7773,6.07432 23.7191,-0.62802 56.3894,-2.67191 59.6884,-34.5581 0,0 -25.7602,6.75405 -45.3952,6.75405 -19.6351,0 -56.7429,-4.08402 -86.2731,-17.1211 v -46.02795"
         id="path14"
         style="stroke-width:0.940152" />
      <path
         class="cls-1"
         d="m 1160.5676,657.12638 c 1.9207,123.46261 0.3074,179.21549 -12.3818,202.92329 -12.3809,23.12774 -26.8423,38.1805 -45.2768,47.88099 -10.4564,5.50271 -31.5063,11.50182 -31.5063,11.50182 l -0.3225,-46.467 a 118.84176,118.84176 0 0 0 31.7987,-16.05779 c 17.3092,-12.52001 24.4741,-33.09335 25.1839,-56.93277 0.863,-29.04223 -0.865,-116.18772 -0.865,-116.18772 z"
         id="path16"
         style="stroke-width:0.940152" />
      <polygon
         class="cls-1"
         points="1564.831,767.102 1552.492,680.464 1509.49,705.591 1527.391,786.227 "
         id="polygon18"
         transform="matrix(0.94015174,0,0,0.94015174,-351.1118,59.558415)" />
      <path
         class="cls-2"
         d="m 1267.397,625.94813 v -51.70835 c -1.853,2.11628 -4.0878,4.62273 -6.6243,7.4272 q -0.5349,-13.03426 -1.1714,-26.82723 l -34.3099,38.61015 c 0,0 0.1636,10.5297 0.3601,25.88144 -5.514,5.76971 -11.1455,11.59865 -16.6868,17.25743 v -25.3841 l -33.9733,33.21932 v 25.40008 c -2.624,2.37858 -5.0026,4.45256 -7.0709,6.15329 v 55.95972 q 3.4786,-3.21156 7.0709,-6.64312 v 49.02516 c 0,0 23.2678,-21.20137 34.0043,-41.78881 l -0.031,-41.60077 c 5.9352,-6.27364 11.7331,-12.51812 17.2283,-18.52099 0.1664,23.64199 0.188,46.2282 -0.1664,57.34925 -1.2833,39.98748 -41.205,74.81822 -41.205,74.81822 l -0.1758,60.37184 c 0,0 43.7866,-31.68969 66.8683,-80.96775 10.6143,-22.65765 13.0145,-73.93541 10.9744,-152.3262 3.1392,-3.62805 4.9085,-5.70578 4.9085,-5.70578 z"
         id="path20" />
      <path
         class="cls-1"
         d="m 1259.3822,768.76376 1.7967,-1.10092 a 16.949056,16.949056 0 0 0 6.3056,-6.5632 c -7.7601,-1.81355 -11.9625,-7.97154 -11.9625,-17.78767 0,-12.10821 6.6121,-18.77671 18.615,-18.77671 6.8584,0 18.3658,2.80541 18.3658,21.59247 0,20.18129 -9.5049,33.3594 -28.2506,39.1686 l -4.8737,1.51176 z m 14.5056,-58.97478 c -11.9521,0 -18.5341,-6.6685 -18.5341,-18.77671 0,-12.10821 6.581,-18.77765 18.5341,-18.77765 11.9531,0 18.5351,6.6685 18.5351,18.77765 0,12.10915 -6.5829,18.77577 -18.5351,18.77577 z"
         id="path22"
         style="stroke-width:0.940152" />
      <path
         class="cls-3"
         d="m 1273.8878,675.99617 q 14.7736,0 14.7745,15.0161 10e-4,15.0161 -14.7745,15.01516 -14.7754,0 -14.7735,-15.0161 0,-15.0161 14.7735,-15.0161 m 0.2529,52.2997 q 14.6053,0 14.6053,17.83186 0,27.64046 -25.6022,35.57722 V 770.8697 a 20.747269,20.747269 0 0 0 9.5688,-12.96845 q -13.431,0 -13.43,-14.58928 0,-15.01422 14.8544,-15.0161 m -0.2529,-59.82092 c -13.9603,0 -22.2948,8.4247 -22.2948,22.53732 0,14.11262 8.3345,22.53732 22.2948,22.53732 13.9603,0 22.2957,-8.42564 22.2957,-22.53732 0,-14.11168 -8.3345,-22.53732 -22.2957,-22.53732 z m 0.2529,52.2997 c -14.0139,0 -22.3756,8.42564 -22.3756,22.53732 0,9.24169 3.4898,15.99762 9.7127,19.46772 a 15.049009,15.049009 0 0 1 -2.2564,1.67629 l -3.5923,2.2009 v 25.25341 l 9.7475,-3.0207 c 20.2132,-6.26517 30.8971,-21.05188 30.8971,-42.76186 0,-22.88236 -15.4739,-25.35308 -22.1264,-25.35308 z"
         id="path24"
         style="stroke-width:0.940152" />
      <path
         class="cls-1"
         d="m 1107.2553,979.14868 0.4363,-0.26733 a 4.1156305,4.1156305 0 0 0 1.5311,-1.5937 c -1.8843,-0.44037 -2.9048,-1.93567 -2.9048,-4.31926 0,-2.94016 1.6056,-4.55943 4.5202,-4.55943 1.6654,0 4.4597,0.68122 4.4597,5.24316 0,4.90049 -2.3081,8.10045 -6.8599,9.51106 l -1.1835,0.36708 z m 3.5223,-14.32047 c -2.9023,0 -4.5006,-1.61926 -4.5006,-4.55942 0,-2.94017 1.5981,-4.55967 4.5006,-4.55967 2.9025,0 4.5008,1.61928 4.5008,4.55967 0,2.94039 -1.5985,4.5592 -4.5008,4.5592 z"
         id="path22-6"
         style="fill:#0f0d22;stroke-width:0.22829" />
      <path
         class="cls-3"
         d="m 1110.7776,956.62252 q 3.5874,0 3.5876,3.64627 0,3.64626 -3.5876,3.64603 -3.5878,0 -3.5873,-3.64626 0,-3.64627 3.5873,-3.64627 m 0.061,12.6996 q 3.5465,0 3.5465,4.33 0,6.71176 -6.2168,8.63899 v -2.63083 a 5.0379262,5.0379262 0 0 0 2.3235,-3.14904 q -3.2614,0 -3.2611,-3.54262 0,-3.64581 3.607,-3.64627 m -0.062,-14.52593 c -3.3899,0 -5.4136,2.04571 -5.4136,5.4726 0,3.42688 2.0237,5.47259 5.4136,5.47259 3.3899,0 5.414,-2.04595 5.414,-5.47259 0,-3.42665 -2.0238,-5.4726 -5.414,-5.4726 z m 0.062,12.69961 c -3.403,0 -5.4333,2.04594 -5.4333,5.47259 0,2.2441 0.8473,3.8846 2.3584,4.72722 a 3.6542544,3.6542544 0 0 1 -0.5479,0.40704 l -0.8723,0.53443 v 6.13213 l 2.367,-0.7335 c 4.9082,-1.52134 7.5025,-5.11189 7.5025,-10.38359 0,-5.55637 -3.7574,-6.15632 -5.3728,-6.15632 z"
         id="path24-7"
         style="fill:#ffffff;stroke-width:0.22829" />
    </g>
    <g
       id="FX_BACK"
       transform="matrix(0.94015174,0,0,0.94015174,-351.1118,59.558415)">
      <path
         class="cls-4"
         d="m 1616.61,371.964 c -88.944,-83.9 -168.37,-88.8 -189.084,-88.8 h -0.419 c -2.433,0 -4.043,0.066 -4.774,0.078 -0.73,-0.012 -2.342,-0.078 -4.773,-0.078 h -0.419 c -20.706,0 -100.192,4.82 -189.075,88.8 -103.851,98.119 -117.19,218.116 -117.19,218.116 0,0 70.388,90.52 141.424,144.125 69.6,52.522 169.771,95.772 169.771,95.772 l 0.211,-0.09 0.208,0.09 c 0,0 99.035,-41.934 169.89,-95.772 71.7,-54.481 141.422,-144.125 141.422,-144.125 -0.186,-0.235 -13.818,-120.606 -117.192,-218.116 z M 1270.416,710.75 c -53.6,-40.443 -107.987,-104.38 -127.954,-128.792 a 337.321,337.321 0 0 1 16.627,-55.439 q 4.342,-11.069 9.392,-21.854 c 25.365,-49.367 74.6,-106.018 126.14,-148.388 59.249,-39.983 107.269,-43.727 122.937,-43.727 1.423,0 2.489,0.029 3.268,0.051 0.779,0.022 1.355,0.03 1.717,0.03 0.362,0 0.937,-0.009 1.717,-0.03 0.78,-0.021 1.842,-0.051 3.266,-0.051 18.222,0 80.187,5.063 152.681,66.277 39.6,39.4 76.946,90.126 105.38,147.692 q 1.186,2.4 2.248,4.766 a 348.889,348.889 0 0 1 11.9,37.907 c 1.016,4.942 1.773,9.26 2.482,12.767 -19.856,24.272 -73.819,87.659 -128.031,128.85 a 602.343,602.343 0 0 1 -58.287,38.535 c 4.087,-4 8,-8.105 11.8,-12.27 q 6.622,-7.277 12.77,-14.854 c 2.05,-2.53 4.077,-5.07 6.058,-7.659 1,-1.288 1.977,-2.592 2.957,-3.9 l 1.465,-1.985 1.5,-2.074 3.338,-4.612 -1.545,-4.323 c -0.573,-1.6 -1.118,-3.032 -1.686,-4.529 l -1.71,-4.418 q -1.728,-4.4 -3.523,-8.752 -3.584,-8.714 -7.422,-17.292 c -5.129,-11.437 -10.552,-22.728 -16.42,-33.784 -5.868,-11.056 -12.127,-21.9 -19.034,-32.311 a 204.984,204.984 0 0 0 -23.073,-29.316 202.519,202.519 0 0 1 18.771,31.777 c 5.368,11.047 10.043,22.4 14.29,33.9 4.247,11.5 8.045,23.158 11.522,34.892 q 2.592,8.807 4.927,17.667 c 0.773,2.954 1.531,5.909 2.255,8.863 l 0.758,3.038 c -1.064,1.083 -2.136,2.169 -3.226,3.24 -2.164,2.154 -4.381,4.269 -6.607,6.364 q -6.692,6.274 -13.678,12.135 c -4.657,3.884 -9.375,7.658 -14.208,11.149 -1.192,0.9 -2.426,1.719 -3.633,2.581 l -1.818,1.277 -1.715,1.118 c -2.308,1.475 -4.718,2.912 -7.24,4.283 a 262.23,262.23 0 0 1 -32.429,14.532 q -8.476,3.207 -17.133,6.078 -4.322,1.434 -8.658,2.781 l -1.5,0.457 -1.5,-0.457 q -4.332,-1.344 -8.657,-2.781 -8.64,-2.874 -17.134,-6.078 a 262.215,262.215 0 0 1 -32.428,-14.532 c -2.522,-1.371 -4.933,-2.808 -7.241,-4.283 l -1.715,-1.118 -1.818,-1.277 c -1.207,-0.862 -2.441,-1.677 -3.633,-2.581 -4.832,-3.491 -9.55,-7.265 -14.208,-11.149 -4.658,-3.884 -9.217,-7.952 -13.678,-12.135 -2.226,-2.1 -4.442,-4.21 -6.607,-6.364 -1.09,-1.071 -2.161,-2.157 -3.226,-3.24 l 0.758,-3.038 q 1.087,-4.431 2.256,-8.863 2.325,-8.859 4.927,-17.667 c 3.477,-11.734 7.267,-23.4 11.521,-34.892 4.254,-11.492 8.923,-22.854 14.29,-33.9 a 202.674,202.674 0 0 1 18.771,-31.777 204.978,204.978 0 0 0 -23.072,29.316 c -6.908,10.411 -13.176,21.255 -19.035,32.311 -5.859,11.056 -11.291,22.347 -16.419,33.784 q -3.831,8.584 -7.422,17.292 -1.79,4.357 -3.523,8.752 l -1.71,4.418 c -0.569,1.5 -1.114,2.928 -1.686,4.529 l -1.546,4.323 3.338,4.612 1.5,2.074 1.464,1.985 c 0.981,1.312 1.961,2.616 2.957,3.9 1.981,2.589 4.008,5.129 6.058,7.659 q 6.16,7.578 12.77,14.854 c 3.358,3.673 6.8,7.3 10.365,10.849 a 607.226,607.226 0 0 1 -56.353,-37.173 z"
         transform="translate(-5.918,-93.178)"
         id="path27" />
      <path
         class="cls-5"
         d="m 1600.272,370.971 c -88.877,-83.971 -168.37,-88.8 -189.084,-88.8 h -0.419 c -2.434,0 -4.043,0.066 -4.774,0.078 -0.73,-0.012 -2.342,-0.078 -4.773,-0.078 h -0.419 c -20.706,0 -100.192,4.82 -189.075,88.8 -103.852,98.119 -117.19,218.116 -117.19,218.116 0,0 70.388,90.524 141.422,144.126 69.6,52.521 169.771,95.771 169.771,95.771 l 0.211,-0.09 0.208,0.09 c 0,0 99.035,-41.934 169.89,-95.771 71.7,-54.482 141.422,-144.126 141.422,-144.126 0,0 -13.338,-119.997 -117.19,-218.116 z m -346.194,338.787 c -53.6,-40.444 -107.987,-104.381 -127.954,-128.793 a 337.22,337.22 0 0 1 16.627,-55.439 q 4.342,-11.068 9.392,-21.854 c 25.365,-49.367 74.6,-106.018 126.14,-148.387 59.249,-39.984 107.269,-43.728 122.937,-43.728 1.422,0 2.489,0.03 3.268,0.051 0.779,0.021 1.355,0.031 1.717,0.031 0.362,0 0.936,-0.01 1.717,-0.031 0.781,-0.021 1.842,-0.051 3.266,-0.051 18.221,0 80.187,5.063 152.681,66.277 39.6,39.4 76.946,90.126 105.38,147.692 q 1.187,2.4 2.248,4.766 a 348.957,348.957 0 0 1 11.9,37.907 c 1.016,4.942 1.773,9.261 2.482,12.767 -19.856,24.272 -73.819,87.659 -128.031,128.85 a 602.537,602.537 0 0 1 -58.287,38.536 c 4.087,-4 8,-8.105 11.8,-12.271 q 6.622,-7.277 12.77,-14.853 c 2.05,-2.531 4.077,-5.071 6.058,-7.66 1,-1.287 1.977,-2.592 2.957,-3.9 l 1.465,-1.984 1.5,-2.075 3.338,-4.612 -1.545,-4.323 c -0.573,-1.6 -1.118,-3.032 -1.686,-4.529 l -1.711,-4.417 q -1.727,-4.4 -3.522,-8.753 -3.584,-8.713 -7.422,-17.292 c -5.129,-11.437 -10.552,-22.727 -16.42,-33.784 -5.868,-11.057 -12.127,-21.9 -19.034,-32.31 a 204.993,204.993 0 0 0 -23.073,-29.317 202.483,202.483 0 0 1 18.771,31.778 c 5.368,11.046 10.043,22.4 14.29,33.9 4.247,11.5 8.045,23.158 11.522,34.892 q 2.592,8.806 4.927,17.668 1.159,4.429 2.255,8.863 l 0.758,3.037 c -1.065,1.083 -2.136,2.169 -3.226,3.24 -2.165,2.154 -4.381,4.27 -6.607,6.364 q -6.691,6.276 -13.678,12.135 c -4.657,3.885 -9.376,7.658 -14.208,11.149 -1.192,0.9 -2.426,1.719 -3.633,2.582 l -1.818,1.276 -1.715,1.118 c -2.308,1.475 -4.719,2.913 -7.24,4.283 a 262.3,262.3 0 0 1 -32.429,14.532 q -8.477,3.207 -17.134,6.078 -4.32,1.434 -8.657,2.781 l -1.5,0.457 -1.5,-0.457 q -4.332,-1.344 -8.657,-2.781 -8.64,-2.872 -17.134,-6.078 a 262.215,262.215 0 0 1 -32.428,-14.532 c -2.522,-1.37 -4.933,-2.808 -7.241,-4.283 l -1.715,-1.118 -1.818,-1.276 c -1.207,-0.863 -2.441,-1.678 -3.633,-2.582 -4.832,-3.491 -9.55,-7.264 -14.208,-11.149 -4.658,-3.885 -9.217,-7.951 -13.678,-12.135 -2.226,-2.094 -4.442,-4.21 -6.607,-6.364 -1.09,-1.071 -2.161,-2.157 -3.226,-3.24 l 0.758,-3.037 c 0.725,-2.955 1.483,-5.91 2.255,-8.863 q 2.327,-8.859 4.927,-17.668 c 3.478,-11.734 7.268,-23.4 11.522,-34.892 4.254,-11.492 8.923,-22.854 14.29,-33.9 a 202.637,202.637 0 0 1 18.771,-31.778 204.986,204.986 0 0 0 -23.072,29.317 c -6.908,10.411 -13.176,21.254 -19.035,32.31 -5.859,11.056 -11.291,22.347 -16.42,33.784 q -3.831,8.585 -7.422,17.292 -1.788,4.359 -3.522,8.753 l -1.711,4.417 c -0.568,1.5 -1.113,2.928 -1.685,4.529 l -1.546,4.323 3.338,4.612 1.5,2.075 1.465,1.984 c 0.981,1.312 1.961,2.617 2.957,3.9 1.981,2.589 4.008,5.129 6.058,7.66 q 6.159,7.578 12.77,14.853 c 3.358,3.674 6.8,7.3 10.365,10.85 a 607.63,607.63 0 0 1 -56.354,-37.173 z"
         transform="translate(-5.918,-93.178)"
         id="path29" />
      <path
         class="cls-5"
         d="m 1462.761,264.605 c 31.154,-24.387 40.28,-76.753 32.749,-88.526 -3.424,8.409 -10.956,13.875 -10.956,13.875 -3.423,-60.127 -59.129,-90.343 -82.409,-95.809 -1,17.247 -11.421,50.626 -11.763,52.728 -0.342,2.102 -5.15,-27.856 -5.15,-27.856 -36.829,16.847 -44.782,61.188 -44.782,61.188 l -3.277,-3.774 c 0,0 -3.616,19.087 -3.274,21.189 -5.477,-5.046 -7.107,-23.843 -7.107,-23.843 -26.26,61.411 15.673,93.567 15.673,93.567 z"
         transform="translate(-5.918,-93.178)"
         id="path31" />
      <path
         class="cls-4"
         d="m 1487.7,270.805 c 31.154,-24.387 22.562,-82.293 11.706,-93.369 a 82.69,82.69 0 0 0 -4.514,14.137 c -3.424,-60.127 -58.13,-89.279 -81.41,-94.745 3.081,18.08 -12.42,49.562 -12.763,51.664 -0.343,2.102 -14.4,19.97 -14.4,19.97 -30.127,19.342 -35.535,13.362 -35.535,13.362 l -3.359,-2.142 c 0,0 -1.8,18.2 -1.462,20.3 -5.477,-5.046 -0.706,12.14 -0.706,12.14 12.87,49.309 7.542,56.84 7.542,56.84 z"
         transform="translate(-5.918,-93.178)"
         id="path33" />
      <path
         class="cls-5"
         d="m 1260.291,261.284 a 75,75 0 1 0 75,75 75,75 0 0 0 -75,-75 z"
         transform="translate(-5.918,-93.178)"
         id="path35" />
      <path
         class="cls-4"
         d="m 1569.3,261.284 a 75,75 0 1 0 75,75 75,75 0 0 0 -75,-75 z"
         transform="translate(-5.918,-93.178)"
         id="path37" />
    </g>
    <g
       id="PANDA"
       transform="matrix(0.94015174,0,0,0.94015174,-351.1118,59.558415)">
      <path
         class="cls-1"
         d="m 1260.291,266.619 a 69.666,69.666 0 1 0 69.665,69.665 69.666,69.666 0 0 0 -69.665,-69.665 z"
         transform="translate(-5.918,-93.178)"
         id="path40" />
      <path
         class="cls-3"
         d="m 1261.129,303.141 a 32.371,32.371 0 1 0 32.371,32.371 32.371,32.371 0 0 0 -32.371,-32.371 z"
         transform="translate(-5.918,-93.178)"
         id="path42" />
      <path
         class="cls-1"
         d="m 1569.3,266.619 a 69.666,69.666 0 1 0 69.666,69.665 69.665,69.665 0 0 0 -69.666,-69.665 z"
         transform="translate(-5.918,-93.178)"
         id="path44" />
      <path
         class="cls-3"
         d="m 1570.14,303.141 a 32.371,32.371 0 1 0 32.372,32.371 32.371,32.371 0 0 0 -32.372,-32.371 z"
         transform="translate(-5.918,-93.178)"
         id="path46" />
      <path
         class="cls-3"
         d="M 1606.137,370.092 C 1518.551,287.341 1440.213,282.585 1419.8,282.585 h -0.413 c -2.4,0 -3.984,0.065 -4.7,0.077 -0.72,-0.012 -2.309,-0.077 -4.7,-0.077 h -0.413 c -20.4,0 -98.736,4.75 -186.328,87.507 -102.342,96.693 -115.487,214.946 -115.487,214.946 0,0 69.366,89.209 139.367,142.032 68.591,51.758 167.305,94.38 167.305,94.38 l 0.208,-0.089 0.2,0.089 c 0,0 97.6,-41.326 167.422,-94.38 70.662,-53.69 139.367,-142.032 139.367,-142.032 0,0 -13.149,-118.253 -115.491,-214.946 z"
         transform="translate(-5.918,-93.178)"
         id="path48" />
      <path
         class="cls-1"
         d="m 1541.294,509.716 c -61.532,-25.381 -79.777,37.96 -79.777,37.96 0,0 -8.179,26.006 18.5,64.337 12.47,17.918 36.479,38.43 37.266,40.791 0.787,2.361 18.253,25.753 18.253,25.753 l 25.708,-31.742 -3.935,12.854 c 0,0 30.692,-10.493 41.448,-32.528 V 640 c 0,0 12.591,-6.034 19.936,-36.726 l 5.338,10.67 c 0,0 9.424,-20.733 0.942,-44.137 -5.869,-16.194 -20.594,-23.7 -20.594,-23.7 l 14.314,-1.335 c 0,0 -38.087,-18.84 -77.399,-35.056 z"
         transform="translate(-5.918,-93.178)"
         id="path50" />
      <path
         class="cls-1"
         d="m 1288.036,509.716 c 61.532,-25.381 79.777,37.96 79.777,37.96 0,0 8.179,26.006 -18.5,64.337 -12.47,17.918 -36.479,38.43 -37.266,40.791 -0.787,2.361 -18.253,25.753 -18.253,25.753 l -25.708,-31.742 3.935,12.854 c 0,0 -30.692,-10.493 -41.448,-32.528 V 640 c 0,0 -12.591,-6.034 -19.936,-36.726 l -5.337,10.67 c 0,0 -9.425,-20.733 -0.943,-44.137 5.869,-16.194 20.594,-23.7 20.594,-23.7 l -14.314,-1.335 c 0,0 38.087,-18.84 77.399,-35.056 z"
         transform="translate(-5.918,-93.178)"
         id="path52" />
      <path
         class="cls-1"
         d="m 1608.523,370.176 c -88.877,-83.972 -168.37,-88.8 -189.084,-88.8 h -0.419 c -2.433,0 -4.043,0.066 -4.774,0.079 -0.73,-0.013 -2.342,-0.079 -4.773,-0.079 h -0.419 c -20.706,0 -100.192,4.82 -189.075,88.8 -103.852,98.118 -117.19,218.116 -117.19,218.116 0,0 70.388,90.523 141.422,144.125 69.6,52.521 169.771,95.772 169.771,95.772 l 0.211,-0.09 0.208,0.09 c 0,0 99.035,-41.935 169.89,-95.772 71.7,-54.482 141.422,-144.125 141.422,-144.125 0,0 -13.338,-119.998 -117.19,-218.116 z m -346.194,338.786 c -53.6,-40.443 -107.987,-104.38 -127.954,-128.792 A 337.225,337.225 0 0 1 1151,524.73 q 4.342,-11.067 9.392,-21.854 c 25.365,-49.367 74.6,-106.017 126.14,-148.387 59.249,-39.984 107.269,-43.727 122.937,-43.727 1.422,0 2.489,0.029 3.268,0.05 0.779,0.021 1.355,0.031 1.717,0.031 0.362,0 0.936,-0.009 1.717,-0.031 0.781,-0.022 1.842,-0.05 3.266,-0.05 18.221,0 80.187,5.062 152.681,66.276 39.6,39.4 76.946,90.127 105.38,147.692 q 1.186,2.4 2.248,4.766 a 348.965,348.965 0 0 1 11.9,37.908 c 1.016,4.941 1.773,9.26 2.482,12.766 -19.856,24.273 -73.819,87.659 -128.031,128.851 a 602.343,602.343 0 0 1 -58.287,38.535 c 4.087,-4 8,-8.105 11.8,-12.271 q 6.622,-7.275 12.77,-14.853 c 2.05,-2.53 4.077,-5.071 6.058,-7.659 1,-1.288 1.977,-2.593 2.957,-3.9 l 1.465,-1.984 1.5,-2.074 3.338,-4.612 -1.545,-4.323 c -0.573,-1.6 -1.118,-3.033 -1.686,-4.529 l -1.711,-4.418 q -1.726,-4.4 -3.522,-8.753 -3.584,-8.712 -7.422,-17.292 c -5.129,-11.436 -10.552,-22.727 -16.42,-33.784 -5.868,-11.057 -12.127,-21.9 -19.034,-32.31 a 204.993,204.993 0 0 0 -23.073,-29.317 202.483,202.483 0 0 1 18.771,31.778 c 5.368,11.047 10.043,22.4 14.29,33.9 4.247,11.5 8.045,23.157 11.522,34.891 q 2.592,8.807 4.927,17.668 1.159,4.429 2.255,8.863 l 0.758,3.038 c -1.065,1.083 -2.136,2.168 -3.226,3.24 -2.165,2.153 -4.381,4.269 -6.607,6.363 q -6.692,6.276 -13.678,12.136 c -4.657,3.884 -9.376,7.657 -14.208,11.148 -1.192,0.9 -2.426,1.719 -3.633,2.582 l -1.818,1.276 -1.715,1.118 c -2.308,1.475 -4.719,2.913 -7.24,4.283 a 262.148,262.148 0 0 1 -32.429,14.532 q -8.476,3.207 -17.134,6.079 -4.32,1.432 -8.657,2.78 l -1.5,0.457 -1.5,-0.457 q -4.332,-1.344 -8.657,-2.78 -8.64,-2.874 -17.134,-6.079 a 262.067,262.067 0 0 1 -32.428,-14.532 c -2.522,-1.37 -4.933,-2.808 -7.241,-4.283 l -1.715,-1.118 -1.818,-1.276 c -1.207,-0.863 -2.441,-1.678 -3.633,-2.582 -4.832,-3.491 -9.55,-7.264 -14.208,-11.148 -4.658,-3.884 -9.217,-7.952 -13.678,-12.136 -2.226,-2.094 -4.442,-4.21 -6.607,-6.363 -1.09,-1.072 -2.161,-2.157 -3.226,-3.24 l 0.758,-3.038 c 0.725,-2.955 1.483,-5.91 2.255,-8.863 q 2.327,-8.859 4.927,-17.668 c 3.478,-11.734 7.268,-23.395 11.522,-34.891 4.254,-11.496 8.923,-22.854 14.29,-33.9 a 202.637,202.637 0 0 1 18.771,-31.778 204.986,204.986 0 0 0 -23.072,29.317 c -6.908,10.411 -13.176,21.255 -19.035,32.31 -5.859,11.055 -11.291,22.348 -16.42,33.784 q -3.831,8.584 -7.422,17.292 -1.788,4.359 -3.522,8.753 l -1.71,4.418 c -0.569,1.5 -1.114,2.928 -1.686,4.529 l -1.546,4.323 3.338,4.612 1.5,2.074 1.465,1.984 c 0.981,1.312 1.961,2.617 2.957,3.9 1.981,2.588 4.008,5.129 6.058,7.659 q 6.159,7.578 12.77,14.853 c 3.358,3.674 6.8,7.3 10.365,10.85 a 607.428,607.428 0 0 1 -56.352,-37.173 z"
         transform="translate(-5.918,-93.178)"
         id="path54" />
      <path
         class="cls-1"
         d="m 1481.647,262.881 c 31.154,-24.388 23.622,-78.461 16.091,-90.234 -3.424,8.41 -10.956,13.876 -10.956,13.876 -3.423,-60.128 -61.966,-87.879 -85.246,-93.345 3.081,18.08 -3.081,48.775 -3.424,50.877 -0.343,2.102 -11.64,-25.649 -11.64,-25.649 -30.127,19.342 -43.136,63.492 -43.136,63.492 l -6.163,-5.467 c 0,0 0.343,16.4 0.685,18.5 -5.478,-5.046 -10.613,-22.285 -10.613,-22.285 -19.514,61.809 21.568,90.822 21.568,90.822 z"
         transform="translate(-5.918,-93.178)"
         id="path56" />
      <path
         class="cls-1"
         d="m 1476.636,733.048 c -9.221,4.694 -18.441,5.364 -28.333,4.191 -5.668,-0.673 -14.866,-6.08 -22.34,-10.011 l -0.628,-4.91 c 0,0 18.3,-4.181 30.369,-11.223 a 109.376,109.376 0 0 0 21.77,-17.445 c 0,0 3.018,-7.88 1.509,-10.395 -1.509,-2.515 -21.291,-15.591 -21.291,-15.591 0,0 -36.5,9.724 -43.418,9.724 -6.918,0 -43.589,-9.724 -43.589,-9.724 0,0 -19.782,13.077 -21.291,15.591 -1.509,2.514 1.509,10.395 1.509,10.395 a 109.376,109.376 0 0 0 21.77,17.445 c 12.071,7.042 30.369,11.223 30.369,11.223 l -0.628,4.91 c -7.474,3.931 -16.672,9.338 -22.34,10.011 -9.892,1.173 -19.112,0.5 -28.333,-4.191 -9.221,-4.691 -32.357,-16.6 -32.357,-16.6 l 37.889,46.439 17.939,-6.2 c 0.47,0 34.558,-15.1 38.977,-17.058 4.418,1.958 38.506,17.058 38.976,17.058 l 17.939,6.2 37.889,-46.439 c 0,0 -23.136,11.905 -32.357,16.6 z"
         transform="translate(-5.918,-93.178)"
         id="path58" />
      <polygon
         class="cls-3"
         points="1286.413,472.483 1294.677,480.747 1304.221,471.203 1313.764,480.747 1322.028,472.483 1312.485,462.939 1322.029,453.395 1313.765,445.131 1304.221,454.675 1294.676,445.131 1286.413,453.395 1295.957,462.939 "
         id="polygon60" />
      <polygon
         class="cls-3"
         points="1494.454,472.483 1502.718,480.747 1512.262,471.203 1521.806,480.747 1530.07,472.483 1520.526,462.939 1530.071,453.395 1521.807,445.131 1512.262,454.675 1502.718,445.131 1494.454,453.395 1503.999,462.939 "
         id="polygon62" />
      <path
         class="cls-1"
         d="m 1330.551,302.1 c 0.864,0.288 83.754,158.61 83.754,158.61 l 81.164,-159.761 c 0,0 -50.072,-18.137 -88.649,-16.41 -38.577,1.727 -76.269,17.561 -76.269,17.561 z"
         transform="translate(-5.918,-93.178)"
         id="path64" />
      <path
         class="cls-6"
         d="m 1467.694,275.29 c 42.315,-94.157 -27.439,-137.653 -45.743,-141.95 -1.334,17.478 -19.668,46.869 -19.937,48.522 -0.269,1.653 -22.587,-27 -22.587,-27 -24.36,30.429 -25.058,65.349 -24.789,67 -8.335,-1.225 -20.769,-14.814 -20.769,-14.814 -1.709,47.126 29.383,68.7 29.383,68.7 z"
         transform="translate(-5.918,-93.178)"
         id="path66" />
      <rect
         class="cls-1"
         x="1332.6169"
         y="168.356"
         width="151.308"
         height="36.351002"
         rx="12"
         id="rect68" />
      <polygon
         class="cls-3"
         points="1402.016,736.037 1408.175,705.158 1421.924,738.447 "
         id="polygon70" />
      <path
         class="cls-1"
         d="m 1071.185,562.486 q 15.272,16.567 15.272,52.289 v 73.245 q 0,15.366 2.688,18.959 c 1.791,2.395 9.3,3.592 9.3,3.592 v 21.954 l -26.042,-0.2 q -23.947,0 -23.947,-58.675 V 603 q 0,-30.334 -12.1,-34.527 v -16.365 q 10.263,-3.789 11.24,-18.162 l 0.733,-9.579 0.122,-2.195 V 452.32 q 0,-60.473 28.467,-60.472 h 21.767 V 414.4 l -5.151,0.4 q -7.087,1.6 -7.086,21.754 V 510.2 q 0.01,34.326 -15.263,52.286 z"
         transform="translate(-5.918,-93.178)"
         id="path72" />
      <path
         class="cls-1"
         d="m 1743.923,510.2 v -73.647 q 0,-20.156 -7.086,-21.754 l -5.151,-0.4 v -22.551 h 21.766 q 28.47,0 28.467,60.472 v 69.852 l 0.123,2.195 0.733,9.579 q 0.978,14.37 11.24,18.162 v 16.365 q -12.1,4.191 -12.1,34.527 v 70.65 q 0,58.676 -23.946,58.675 l -26.043,0.2 v -21.954 c 0,0 7.514,-1.2 9.3,-3.592 1.786,-2.392 2.688,-8.715 2.688,-18.959 v -73.245 q 0,-35.722 15.272,-52.289 -15.263,-17.962 -15.263,-52.286 z"
         transform="translate(-5.918,-93.178)"
         id="path74" />
      <path
         class="cls-1"
         d="m 1136.012,623.173 c 0,0 3.967,-43.535 16.5,-61.8 0,0 9.284,73.261 12.866,84.721 3.582,11.46 -29.366,-22.921 -29.366,-22.921 z"
         transform="translate(-5.918,-93.178)"
         id="path76" />
      <polygon
         class="cls-3"
         points="1134.325,554.245 1146.972,567.924 1139.494,529.323 "
         id="polygon78" />
      <path
         class="cls-7"
         d="m 1287.067,785.977 a 8.259,8.259 0 1 1 -8.259,8.259 8.268,8.268 0 0 1 8.259,-8.259 m 0,-24.2 a 32.46,32.46 0 1 0 32.46,32.459 32.459,32.459 0 0 0 -32.46,-32.459 z"
         transform="translate(-5.918,-93.178)"
         id="path80" />
      <text
         class="cls-8"
         transform="translate(1254.397,972.038)"
         id="text88">SPARAN<tspan
   class="cls-9"
   x="197.47099"
   y="0"
   id="tspan82">ZZ</tspan><tspan
   class="cls-10"
   x="262.13"
   y="0"
   id="tspan84">A</tspan><tspan
   class="cls-11"
   x="296.056"
   y="0"
   id="tspan86" /></text>
      <path
         class="cls-1"
         d="m 1435.126,269.52 -0.042,0.252 -0.021,0.126 a 3.455,3.455 0 0 0 0.146,-0.329 10.578,10.578 0 0 0 0.525,-1.694 l -0.3,-0.093 -0.133,0.722 z"
         transform="translate(-5.918,-93.178)"
         id="path90" />
      <path
         class="cls-1"
         d="m 1464.538,208.835 a 108.533,108.533 0 0 0 -8.895,-27.464 122.968,122.968 0 0 0 -13.953,-22.548 135.235,135.235 0 0 1 8.185,25.5 101.733,101.733 0 0 1 2.217,25.93 84.221,84.221 0 0 1 -4.582,23.919 74.8,74.8 0 0 1 -4.571,10.453 c -0.867,1.636 -1.8,3.2 -2.76,4.7 -0.483,0.75 -0.974,1.475 -1.484,2.195 l -0.74,1.036 a 173.851,173.851 0 0 0 0.9,-17.726 132.285,132.285 0 0 0 -1.334,-18.183 93.521,93.521 0 0 0 -4.191,-16.929 91.776,91.776 0 0 1 -2.056,16.69 111.463,111.463 0 0 1 -4.661,15.318 133.163,133.163 0 0 1 -6.43,14.013 q -1.776,3.344 -3.7,6.518 c -0.077,0.13 -0.158,0.256 -0.236,0.385 0,-1.7 0.016,-3.409 0,-5.112 q -0.1,-9.393 -0.572,-18.73 c -0.351,-6.228 -0.842,-12.428 -1.539,-18.562 -0.741,-6.139 -1.689,-12.214 -2.976,-18.082 -0.795,6.015 -1.937,11.845 -3.261,17.579 -1.369,5.733 -2.925,11.36 -4.6,16.915 q -2.549,8.331 -5.45,16.443 -1.44,4.059 -2.962,8.067 l -0.7,1.819 c -0.258,-0.638 -0.52,-1.267 -0.778,-1.911 q -1.4,-3.571 -2.7,-7.277 c -1.737,-4.93 -3.315,-10 -4.744,-15.156 -0.743,-2.581 -1.371,-5.19 -2.04,-7.824 -0.586,-2.633 -1.252,-5.295 -1.75,-7.98 -1.132,-5.377 -1.923,-10.848 -2.633,-16.447 -1.365,5.369 -2.668,10.893 -3.616,16.518 -0.543,2.817 -0.916,5.648 -1.364,8.511 -0.364,2.853 -0.765,5.739 -1.045,8.63 q -0.922,8.686 -1.3,17.562 c -0.03,0.738 -0.049,1.481 -0.074,2.221 -0.637,-0.567 -1.28,-1.125 -1.909,-1.707 a 75.365,75.365 0 0 1 -6.08,-6.239 31,31 0 0 1 -5.092,-7.617 42.663,42.663 0 0 0 -0.648,10.653 c 0.14,3.628 0.494,7.25 0.966,10.818 0.472,3.568 1.038,7.148 1.7,10.683 q 0.5,2.655 1.054,5.312 l 0.585,2.669 c 0.219,0.915 0.386,1.744 0.706,2.8 l 52.735,-11.955 v 0.128 l 0.061,-0.212 c 0.15,-0.729 19.387,3.625 19.387,3.625 l 0.287,-1.557 c 0.269,-1.544 0.544,-3.075 0.775,-4.624 0.021,-0.134 0.037,-0.269 0.058,-0.4 h 23.339 a 17.414,17.414 0 0 1 -0.556,4.425 c 0.42,-1.134 0.829,-2.282 1.208,-3.434 0.835,-2.549 1.586,-5.111 2.226,-7.7 a 112.368,112.368 0 0 0 2.743,-15.677 110.088,110.088 0 0 0 -1.15,-30.982 z"
         transform="translate(-5.918,-93.178)"
         id="path92" />
      <path
         class="cls-1"
         d="m 1458.507,267.821 -0.3,0.8 c -0.038,0.091 -0.029,0.094 -0.012,0.08 l 0.033,-0.012 0.016,-0.007 h 0.01 v 0 c -0.047,0.1 0.1,-0.193 0.214,-0.464 a 15.6,15.6 0 0 0 0.86,-2.587 c -0.044,0.119 -0.082,0.241 -0.126,0.359 z"
         transform="translate(-5.918,-93.178)"
         id="path94" />
      <rect
         class="cls-3"
         x="1340.5"
         y="180.729"
         width="135.541"
         height="11.607"
         rx="5.803"
         id="rect96" />
      <path
         class="cls-1"
         d="m 1243.5,1052.051 q 6.777,2.6 6.777,8.214 v 11.506 q 0,2.414 1.193,2.978 a 21.4,21.4 0 0 0 4.129,0.564 v 3.449 l -11.557,-0.032 q -10.628,0 -10.627,-9.217 v -11.1 q 0,-4.765 -5.368,-5.424 v -2.571 q 4.556,-0.594 4.988,-2.853 l 0.326,-1.505 0.054,-0.344 v -10.973 q 0,-9.5 12.633,-9.5 h 9.66 v 3.543 l -2.286,0.063 a 3.05,3.05 0 0 0 -3.145,3.417 v 11.569 q 0,5.395 -6.777,8.216 z"
         transform="translate(-5.918,-93.178)"
         id="path98" />
      <path
         class="cls-1"
         d="m 1572.963,1043.837 v -11.569 a 3.05,3.05 0 0 0 -3.145,-3.417 l -2.286,-0.063 v -3.543 h 9.66 q 12.635,0 12.633,9.5 v 10.973 l 0.054,0.344 0.326,1.505 q 0.434,2.257 4.988,2.853 v 2.571 q -5.368,0.659 -5.368,5.424 v 11.1 q 0,9.217 -10.627,9.217 l -11.557,0.032 v -3.449 a 21.4,21.4 0 0 0 4.129,-0.564 q 1.193,-0.564 1.193,-2.978 v -11.506 q 0,-5.613 6.777,-8.214 -6.777,-2.825 -6.777,-8.216 z"
         transform="translate(-5.918,-93.178)"
         id="path100" />
      <path
         class="cls-12"
         d="m 1404.842,1019.651 a 2.9,2.9 0 1 1 -2.9,2.9 2.9,2.9 0 0 1 2.9,-2.9 m 0,-8.5 a 11.4,11.4 0 1 0 11.395,11.395 11.4,11.4 0 0 0 -11.395,-11.395 z"
         transform="translate(-5.918,-93.178)"
         id="path102" />
      <path
         class="cls-3"
         d="M 1130.867,949.593 1086.335,905.061 1107,839.154 c 4.988,20.307 18.521,61.9 57.52,93.477"
         transform="translate(-5.918,-93.178)"
         id="path104" />
    </g>
    <g
       id="FX"
       transform="matrix(0.94015174,0,0,0.94015174,-351.1118,59.558415)">
      <polygon
         class="cls-4"
         points="1814.443,598.544 1822.707,606.808 1832.251,597.264 1841.795,606.807 1850.059,598.543 1840.515,589 1850.06,579.455 1841.796,571.191 1832.251,580.736 1822.707,571.191 1814.443,579.455 1823.988,589 "
         id="polygon107" />
      <circle
         class="cls-4"
         cx="1848.006"
         cy="433.186"
         r="22.493"
         id="circle109" />
      <rect
         class="cls-5"
         x="607.59497"
         y="445.68201"
         width="76.074997"
         height="76.074997"
         transform="rotate(-135,623.37578,438.35674)"
         id="rect111" />
      <rect
         class="cls-5"
         x="700.83698"
         y="841.21301"
         width="16.982"
         height="16.982"
         id="rect113" />
      <rect
         class="cls-5"
         x="593.36499"
         y="233.66701"
         width="446.98801"
         height="4.9260001"
         id="rect115" />
      <rect
         class="cls-5"
         x="1962.545"
         y="584.92603"
         width="36.084999"
         height="36.084999"
         id="rect117" />
      <rect
         class="cls-4"
         x="1897.34"
         y="953.75598"
         width="446.98801"
         height="4.9260001"
         id="rect119" />
      <rect
         class="cls-4"
         x="1808.097"
         y="913.08698"
         width="261.68799"
         height="23.495001"
         id="rect121" />
      <rect
         class="cls-1"
         x="1923.97"
         y="342.28101"
         width="216.327"
         height="37.730999"
         id="rect123" />
      <rect
         class="cls-1"
         x="703.396"
         y="689.02002"
         width="174.168"
         height="32.438"
         id="rect125" />
      <circle
         class="cls-4"
         cx="931.85199"
         cy="96.624001"
         r="57.755001"
         id="circle127" />
      <circle
         class="cls-5"
         cx="2201.9529"
         cy="730.638"
         r="57.755001"
         id="circle129" />
      <circle
         class="cls-5"
         cx="549.57898"
         cy="929.54498"
         r="22.493"
         id="circle131" />
      <rect
         class="cls-5"
         x="1761.271"
         y="236.62801"
         width="574.36603"
         height="2.28"
         id="rect133" />
      <rect
         class="cls-5"
         x="2076.0901"
         y="197.55901"
         width="312.84399"
         height="10.872"
         id="rect135" />
      <rect
         class="cls-5"
         x="2125.489"
         y="211.966"
         width="25.514999"
         height="25.514999"
         transform="rotate(-45,2022.813,185.27642)"
         id="rect137" />
      <rect
         class="cls-5"
         x="1746.974"
         y="57.576"
         width="25.514999"
         height="25.514999"
         id="rect139" />
      <rect
         class="cls-5"
         x="2234.4771"
         y="45.078999"
         width="50.508999"
         height="50.508999"
         id="rect141" />
      <rect
         class="cls-1"
         x="846.12903"
         y="274.22198"
         width="159.08501"
         height="96.944"
         id="rect143" />
      <rect
         class="cls-4"
         x="849.31598"
         y="614.091"
         width="61.936001"
         height="61.936001"
         id="rect145" />
      <rect
         class="cls-4"
         x="815.03601"
         y="602.54797"
         width="14.128"
         height="14.128"
         id="rect147" />
      <rect
         class="cls-4"
         x="768.00299"
         y="627.85101"
         width="14.128"
         height="14.128"
         id="rect149" />
      <rect
         class="cls-4"
         x="415.85501"
         y="656.15002"
         width="415.90399"
         height="4.5510001"
         id="rect151" />
      <rect
         class="cls-1"
         x="2024.431"
         y="388.67999"
         width="345.142"
         height="60.198002"
         id="rect153" />
      <rect
         class="cls-5"
         x="453.883"
         y="670.005"
         width="346.69199"
         height="2.4630001"
         id="rect155" />
      <rect
         class="cls-4"
         x="768.00299"
         y="602.71698"
         width="14.128"
         height="14.128"
         id="rect157" />
      <rect
         class="cls-4"
         x="720.97101"
         y="628.02002"
         width="14.128"
         height="14.128"
         id="rect159" />
      <rect
         class="cls-1"
         x="1112.54"
         y="929.87799"
         width="20.056999"
         height="20.056999"
         id="rect161" />
      <rect
         class="cls-1"
         x="1159.4"
         y="905.62402"
         width="20.056999"
         height="20.056999"
         id="rect163" />
      <rect
         class="cls-1"
         x="1121.764"
         y="881.62402"
         width="20.056999"
         height="20.056999"
         id="rect165" />
      <rect
         class="cls-1"
         x="1149.968"
         y="975.09998"
         width="20.056999"
         height="20.056999"
         id="rect167" />
      <rect
         class="cls-1"
         x="1665.825"
         y="953.81403"
         width="20.056999"
         height="20.056999"
         id="rect169" />
      <rect
         class="cls-1"
         x="1661.407"
         y="912.59198"
         width="20.056999"
         height="20.056999"
         id="rect171" />
      <rect
         class="cls-1"
         x="1709.282"
         y="906.453"
         width="20.056999"
         height="20.056999"
         id="rect173" />
      <rect
         class="cls-1"
         x="1646.115"
         y="877.43402"
         width="20.056999"
         height="20.056999"
         id="rect175" />
      <rect
         class="cls-5"
         x="1137.089"
         y="227.05299"
         width="14.128"
         height="14.128"
         id="rect177" />
      <rect
         class="cls-5"
         x="1201.403"
         y="143.94"
         width="14.128"
         height="14.128"
         id="rect179" />
      <rect
         class="cls-5"
         x="1201.403"
         y="118.806"
         width="14.128"
         height="14.128"
         id="rect181" />
      <rect
         class="cls-5"
         x="1023.395"
         y="212.614"
         width="14.128"
         height="14.128"
         id="rect183" />
      <polygon
         class="cls-4"
         points="784.098,325.918 792.362,334.182 801.906,324.638 811.45,334.182 819.713,325.918 810.17,316.374 819.714,306.83 811.45,298.566 801.906,308.11 792.362,298.566 784.098,306.83 793.642,316.374 "
         id="polygon185" />
      <rect
         class="cls-1"
         x="800.23999"
         y="794.52301"
         width="61.936001"
         height="61.936001"
         id="rect187" />
      <rect
         class="cls-5"
         x="967.79303"
         y="378.14801"
         width="36.084999"
         height="36.084999"
         id="rect189" />
      <circle
         class="cls-5"
         cx="607.04102"
         cy="765.448"
         r="57.755001"
         id="circle191" />
      <rect
         class="cls-5"
         x="547.92102"
         y="530.41602"
         width="446.98801"
         height="4.9260001"
         id="rect193" />
      <rect
         class="cls-5"
         x="458.67801"
         y="489.74701"
         width="261.68799"
         height="23.495001"
         id="rect195" />
      <rect
         class="cls-5"
         x="1681.271"
         y="866.62799"
         width="574.36603"
         height="2.28"
         id="rect197" />
      <rect
         class="cls-5"
         x="1719.491"
         y="847.12701"
         width="312.84399"
         height="10.872"
         id="rect199" />
      <rect
         class="cls-5"
         x="1758.871"
         y="876.70203"
         width="386.28601"
         height="2.28"
         id="rect201" />
      <rect
         class="cls-5"
         x="841.64099"
         y="432.328"
         width="263.68799"
         height="23.495001"
         id="rect203" />
      <polygon
         class="cls-4"
         points="1715.596,501.701 1917.284,501.701 1917.284,525.195 1699.596,525.195 "
         id="polygon205" />
      <rect
         class="cls-5"
         x="796.44501"
         y="729.89099"
         width="269.284"
         height="50.508999"
         id="rect207" />
      <rect
         class="cls-4"
         x="1989.4919"
         y="469.46301"
         width="141.12"
         height="61.936001"
         id="rect209" />
      <rect
         class="cls-4"
         x="433.97601"
         y="81.134003"
         width="80.144997"
         height="61.936001"
         id="rect211" />
      <polygon
         class="cls-5"
         points="967.3,616.965 975.564,625.229 985.108,615.685 994.652,625.229 1002.915,616.965 993.372,607.421 1002.916,597.877 994.652,589.613 985.108,599.157 975.564,589.613 967.3,597.877 976.844,607.421 "
         id="polygon213" />
      <polygon
         class="cls-5"
         points="806.265,463.762 817.952,463.762 817.952,450.264 831.448,450.265 831.448,438.578 817.952,438.578 817.952,425.08 806.265,425.08 806.265,438.578 792.767,438.577 792.767,450.264 806.265,450.264 "
         id="polygon215" />
      <polygon
         class="cls-5"
         points="2040.298,622.885 2051.985,622.885 2051.985,609.387 2065.482,609.387 2065.481,597.701 2051.985,597.7 2051.985,584.203 2040.298,584.203 2040.298,597.7 2026.8,597.7 2026.8,609.387 2040.298,609.387 "
         id="polygon217" />
      <rect
         class="cls-4"
         x="1701.84"
         y="223.33501"
         width="446.98801"
         height="4.9260001"
         id="rect219" />
      <rect
         class="cls-4"
         x="1697.4399"
         y="147.15601"
         width="261.68799"
         height="66.630997"
         id="rect221" />
      <rect
         class="cls-4"
         x="1837.571"
         y="651.98499"
         width="437.80301"
         height="7.552"
         id="rect223" />
      <rect
         class="cls-4"
         x="1859.978"
         y="721.90503"
         width="131.31599"
         height="4.9260001"
         id="rect225" />
      <rect
         class="cls-4"
         x="1833.76"
         y="681.23602"
         width="76.878998"
         height="23.495001"
         id="rect227" />
      <rect
         class="cls-4"
         x="2209.479"
         y="629.43597"
         width="131.31599"
         height="4.9260001"
         id="rect229" />
      <rect
         class="cls-4"
         x="2258.571"
         y="590.67401"
         width="76.878998"
         height="23.495001"
         id="rect231" />
      <rect
         class="cls-5"
         x="479.90201"
         y="201.59801"
         width="437.80301"
         height="7.552"
         id="rect233" />
      <rect
         class="cls-5"
         x="502.30899"
         y="271.51801"
         width="131.31599"
         height="4.9260001"
         id="rect235" />
      <rect
         class="cls-5"
         x="476.091"
         y="230.849"
         width="76.878998"
         height="23.495001"
         id="rect237" />
      <rect
         class="cls-1"
         x="1570.786"
         y="91.227997"
         width="34.127998"
         height="34.127998"
         id="rect239" />
      <rect
         class="cls-5"
         x="913.17902"
         y="420.716"
         width="263.68799"
         height="8.0649996"
         id="rect241" />
      <rect
         class="cls-4"
         x="1664.392"
         y="485.26901"
         width="263.68799"
         height="7.02"
         id="rect243" />
      <rect
         class="cls-4"
         x="1912.963"
         y="772.474"
         width="14.128"
         height="14.128"
         id="rect245" />
      <rect
         class="cls-4"
         x="1862.05"
         y="797.867"
         width="14.128"
         height="14.128"
         id="rect247" />
      <rect
         class="cls-4"
         x="1862.05"
         y="772.474"
         width="14.128"
         height="14.128"
         id="rect249" />
      <rect
         class="cls-4"
         x="1963.876"
         y="772.474"
         width="14.128"
         height="14.128"
         id="rect251" />
    </g>
    <g
       id="GAFAS"
       transform="matrix(0.94015174,0,0,0.94015174,-351.1118,59.558415)">
      <path
         class="cls-1"
         d="m 1480.881,673.778 c -27.889,0 -50.578,-21.761 -50.578,-48.509 a 46.359,46.359 0 0 1 0.513,-6.838 40.067,40.067 0 0 0 -16.417,-3.651 38.14,38.14 0 0 0 -7.663,0.788 37.66,37.66 0 0 0 -8.569,2.846 46.445,46.445 0 0 1 0.515,6.855 c 0,26.747 -22.689,48.508 -50.577,48.508 -27.888,0 -50.576,-21.761 -50.577,-48.508 0,-0.4 0.032,-1.205 0.032,-1.205 l 0.01,-0.12 c 0.429,-5.372 0.515,-5.85 0.543,-6.007 3.689,-23.446 25.187,-41.175 49.994,-41.175 20.841,0 39.769,12.641 47.212,31.123 a 48.76,48.76 0 0 1 19.025,-3.89 50.515,50.515 0 0 1 19.315,3.92 c 7.434,-18.5 26.378,-31.152 47.225,-31.152 24.758,0 46.231,17.668 49.988,41.111 a 58.587,58.587 0 0 1 0.554,6.115 c 0,0.071 0.036,0.878 0.036,1.28 0,26.748 -22.69,48.509 -50.578,48.509 z m 0,-86.265 c -21.961,0 -39.828,16.938 -39.828,37.756 0,20.818 17.868,37.76 39.828,37.76 21.96,0 39.827,-16.939 39.827,-37.76 0,-20.821 -17.867,-37.756 -39.827,-37.756 z m -132.777,0 c -21.959,0 -39.825,16.937 -39.825,37.756 0,20.819 17.866,37.76 39.826,37.76 21.96,0 39.827,-16.939 39.827,-37.76 0,-20.821 -17.867,-37.756 -39.832,-37.756 z"
         transform="translate(-5.918,-93.178)"
         id="path254" />
      <path
         class="cls-3"
         d="m 1348.1,579.762 c 21.413,0 39.56,13.6 45.51,32.244 a 45.282,45.282 0 0 1 20.727,-5.01 48.165,48.165 0 0 1 21.041,4.973 c 5.963,-18.624 24.1,-32.206 45.5,-32.206 23.807,0 43.583,16.811 47.041,38.672 0.185,0.724 0.509,5.747 0.509,5.747 0,0 0.028,0.725 0.028,1.088 0,25.094 -21.342,45.508 -47.578,45.508 -26.236,0 -47.576,-20.414 -47.576,-45.509 a 43.684,43.684 0 0 1 0.858,-8.57 43.652,43.652 0 0 0 -19.762,-4.919 41.011,41.011 0 0 0 -8.268,0.849 39.543,39.543 0 0 0 -11.3,4.135 43.657,43.657 0 0 1 0.846,8.5 c 0,25.1 -21.343,45.509 -47.577,45.508 -26.234,-0.001 -47.576,-20.413 -47.576,-45.508 0,-0.362 0.028,-1.086 0.028,-1.086 0,0 0.418,-5.226 0.506,-5.716 3.443,-21.878 23.224,-38.705 47.041,-38.705 m 0,86.267 c 23.615,0 42.827,-18.285 42.827,-40.76 0,-22.475 -19.213,-40.756 -42.828,-40.756 -23.615,0 -42.825,18.284 -42.825,40.756 0,22.472 19.211,40.76 42.826,40.76 m 132.775,0 c 23.616,0 42.828,-18.285 42.828,-40.759 0,-22.474 -19.212,-40.757 -42.828,-40.757 -23.616,0 -42.826,18.285 -42.826,40.756 0,22.471 19.212,40.76 42.826,40.76 M 1348.1,573.762 a 54.811,54.811 0 0 0 -35,12.534 51.05,51.05 0 0 0 -17.964,31.185 c -0.055,0.324 -0.161,1.135 -0.568,6.224 l -0.01,0.126 v 0.116 c 0,0 -0.033,0.881 -0.033,1.322 0,28.4 24.034,51.508 53.576,51.508 a 54.335,54.335 0 0 0 37.773,-15.007 50.178,50.178 0 0 0 15.8,-36.5 49.128,49.128 0 0 0 -0.258,-5 35.481,35.481 0 0 1 12.976,-2.491 36.376,36.376 0 0 1 13.156,2.542 48.955,48.955 0 0 0 -0.252,4.947 c 0,28.4 24.034,51.509 53.576,51.509 a 54.339,54.339 0 0 0 37.775,-15.008 50.175,50.175 0 0 0 15.8,-36.5 c 0,-0.442 -0.033,-1.326 -0.033,-1.326 v -0.079 -0.069 a 58.859,58.859 0 0 0 -0.6,-6.5 51.058,51.058 0 0 0 -17.95,-31.016 55.169,55.169 0 0 0 -67.026,-2.273 52.574,52.574 0 0 0 -16.782,20.08 52.919,52.919 0 0 0 -17.716,-3.1 51.739,51.739 0 0 0 -17.437,3.047 52.58,52.58 0 0 0 -16.74,-20.019 54.5,54.5 0 0 0 -32.06,-10.262 z m 0,86.267 c -20.306,0 -36.826,-15.593 -36.826,-34.76 a 33.572,33.572 0 0 1 10.694,-24.459 37.676,37.676 0 0 1 26.131,-10.3 c 20.307,0 36.828,15.591 36.828,34.756 a 33.574,33.574 0 0 1 -10.695,24.462 37.675,37.675 0 0 1 -26.132,10.3 z m 132.775,0 c -20.306,0 -36.826,-15.593 -36.826,-34.76 a 33.572,33.572 0 0 1 10.694,-24.458 37.677,37.677 0 0 1 26.132,-10.3 c 20.307,0 36.828,15.592 36.828,34.757 a 33.576,33.576 0 0 1 -10.694,24.461 37.68,37.68 0 0 1 -26.134,10.3 z"
         transform="translate(-5.918,-93.178)"
         id="path256" />
      <path
         class="cls-5"
         d="m 1348.105,666.029 c -23.615,0 -42.826,-18.285 -42.826,-40.76 0,-22.475 19.211,-40.757 42.825,-40.756 23.614,10e-4 42.828,18.284 42.828,40.756 0,22.472 -19.212,40.76 -42.827,40.76 z"
         transform="translate(-5.918,-93.178)"
         id="path258" />
      <path
         class="cls-4"
         d="m 1480.88,666.029 c -23.614,0 -42.826,-18.285 -42.826,-40.76 0,-22.475 19.212,-40.756 42.826,-40.756 23.614,0 42.828,18.285 42.828,40.757 0,22.472 -19.208,40.759 -42.828,40.759 z"
         transform="translate(-5.918,-93.178)"
         id="path260" />
      <path
         class="cls-5"
         d="m 1348.105,666.029 c -23.615,0 -42.826,-18.285 -42.826,-40.76 0,-22.475 19.211,-40.757 42.825,-40.756 23.614,10e-4 42.828,18.284 42.828,40.756 0,22.472 -19.212,40.76 -42.827,40.76 z"
         transform="translate(-5.918,-93.178)"
         id="path262" />
      <path
         class="cls-4"
         d="m 1480.88,666.029 c -23.614,0 -42.826,-18.285 -42.826,-40.76 0,-22.475 19.212,-40.756 42.826,-40.756 23.614,0 42.828,18.285 42.828,40.757 0,22.472 -19.208,40.759 -42.828,40.759 z"
         transform="translate(-5.918,-93.178)"
         id="path264" />
      <path
         class="cls-3"
         d="m 1483.144,665.7 -37.1,-64.23 c 0,0 -17.838,22.015 -0.647,46.36 a 41.533,41.533 0 0 0 37.747,17.87 z"
         transform="translate(-5.918,-93.178)"
         id="path266" />
      <path
         class="cls-3"
         d="m 1350.275,665.878 -37.1,-64.23 c 0,0 -17.838,22.014 -0.647,46.359 a 41.536,41.536 0 0 0 37.747,17.871 z"
         transform="translate(-5.918,-93.178)"
         id="path268" />
    </g>
  </g>
</svg>
