<?xml version="1.0" encoding="UTF-8" standalone="no"?>
<svg
        xmlns:dc="http://purl.org/dc/elements/1.1/"
        xmlns:cc="http://creativecommons.org/ns#"
        xmlns:rdf="http://www.w3.org/1999/02/22-rdf-syntax-ns#"
        xmlns="http://www.w3.org/2000/svg"
        xmlns:sodipodi="http://sodipodi.sourceforge.net/DTD/sodipodi-0.dtd"
        xmlns:inkscape="http://www.inkscape.org/namespaces/inkscape"
        viewBox="0 0 1024 576"
        version="1.1"
        id="svg1010"
        sodipodi:docname="logo_sparanzza_2020.svg"
        inkscape:version="1.0.1 (3bc2e813f5, 2020-09-07)"
        width="1024"
        height="576">
  <metadata
     id="metadata1014">
    <rdf:RDF>
      <cc:Work
         rdf:about="">
        <dc:format>image/svg+xml</dc:format>
        <dc:type
           rdf:resource="http://purl.org/dc/dcmitype/StillImage" />
        <dc:title></dc:title>
      </cc:Work>
    </rdf:RDF>
  </metadata>
  <sodipodi:namedview
     pagecolor="#ffffff"
     bordercolor="#666666"
     borderopacity="1"
     objecttolerance="10"
     gridtolerance="10"
     guidetolerance="10"
     inkscape:pageopacity="0"
     inkscape:pageshadow="2"
     inkscape:window-width="3840"
     inkscape:window-height="2131"
     id="namedview1012"
     showgrid="false"
     inkscape:zoom="2.1748123"
     inkscape:cx="472.14953"
     inkscape:cy="312.2116"
     inkscape:window-x="0"
     inkscape:window-y="0"
     inkscape:window-maximized="1"
     inkscape:current-layer="svg1010"
     inkscape:pagecheckerboard="false" />
  <defs
     id="defs4">
    <style
       id="style2">.cls-1,.cls-14,.cls-18,.cls-8{fill:#0f0d22;}.cls-15,.cls-2,.cls-4,.cls-9{fill:#4dfbff;}.cls-15,.cls-2,.cls-9{stroke:#00dbdb;}.cls-12,.cls-13,.cls-15,.cls-17,.cls-18,.cls-2,.cls-20,.cls-7,.cls-9{stroke-miterlimit:10;}.cls-12,.cls-2{stroke-width:3px;}.cls-20,.cls-3{fill:#fff;}.cls-12,.cls-13,.cls-17,.cls-5,.cls-7{fill:#ff008c;}.cls-6{fill:#202035;}.cls-12,.cls-17,.cls-18,.cls-7{stroke:#fff;}.cls-13,.cls-18,.cls-20,.cls-7{stroke-width:4px;}.cls-8{font-size:34.08px;letter-spacing:0.1em;}.cls-14,.cls-8{font-family:GN-KMBFont-UB-NewstyleKanaB;}.cls-11,.cls-9{letter-spacing:0.1em;}.cls-10{letter-spacing:0.1em;}.cls-11,.cls-16,.cls-18,.cls-20{font-family:BritannicBold, Britannic Bold;}.cls-13,.cls-20{stroke:#0f0d22;}.cls-14{font-size:129.291px;letter-spacing:0.1em;}.cls-15{letter-spacing:0.1em;}.cls-16{letter-spacing:0.1em;}.cls-17{stroke-width:7px;}.cls-18,.cls-20{font-size:164.609px;letter-spacing:0.1em;}.cls-19{fill:#3aadad;}</style>
  </defs>
  <g
     id="LOGO_WHITE_SIMPLE_copy"
     data-name="LOGO WHITE SIMPLE copy"
     transform="matrix(1.1403007,0,0,-0.98359207,-4.8019632,6106.567)">
    <rect
       class="cls-1"
       x="5.2784624"
       y="5741.1475"
       width="901.09338"
       height="397.51208"
       id="rect484"
       style="stroke-width:0.321936" />
  </g>
  <g
     id="LOGO_WHITE_HORIZONTAL_SIMPLE_copy_2"
     data-name="LOGO WHITE HORIZONTAL SIMPLE copy 2"
     transform="matrix(0.68058718,0,0,0.68058718,-4346.4933,-1882.209)">
    <g
       id="FX_BACK_copy_6"
       data-name="FX_BACK copy 6">
      <path
         class="cls-4"
         d="m 6838.328,3172.4 c -57.2,-53.952 -108.272,-57.1 -121.593,-57.1 h -0.269 c -1.565,0 -2.6,0.043 -3.07,0.051 -0.469,-0.01 -1.506,-0.051 -3.069,-0.051 h -0.27 c -13.314,0 -64.429,3.1 -121.586,57.1 -66.783,63.1 -75.36,140.262 -75.36,140.262 0,0 45.264,58.212 90.942,92.681 44.758,33.775 109.174,61.587 109.174,61.587 l 0.135,-0.058 0.134,0.058 c 0,0 63.685,-26.966 109.25,-61.587 46.109,-35.035 90.942,-92.681 90.942,-92.681 -0.118,-0.149 -8.888,-77.555 -75.36,-140.262 z M 6615.7,3390.262 c -34.465,-26.007 -69.442,-67.123 -82.281,-82.821 a 216.848,216.848 0 0 1 10.691,-35.651 q 2.793,-7.117 6.04,-14.053 c 16.311,-31.746 47.971,-68.176 81.116,-95.422 38.1,-25.712 68.98,-28.119 79.056,-28.119 0.914,0 1.6,0.018 2.1,0.032 0.5,0.014 0.871,0.02 1.1,0.02 0.229,0 0.6,-0.01 1.1,-0.02 0.5,-0.014 1.185,-0.032 2.1,-0.032 11.718,0 51.565,3.255 98.184,42.619 25.463,25.335 49.481,57.957 67.766,94.975 q 0.762,1.545 1.445,3.065 a 224.282,224.282 0 0 1 7.65,24.377 c 0.654,3.177 1.141,5.955 1.6,8.21 -12.768,15.608 -47.469,56.37 -82.331,82.858 a 387.373,387.373 0 0 1 -37.482,24.781 c 2.628,-2.571 5.142,-5.212 7.591,-7.891 q 4.258,-4.679 8.212,-9.552 c 1.318,-1.627 2.621,-3.261 3.9,-4.925 0.641,-0.828 1.271,-1.667 1.9,-2.511 l 0.942,-1.276 0.965,-1.334 2.147,-2.966 -0.994,-2.78 c -0.369,-1.029 -0.719,-1.95 -1.084,-2.912 l -1.1,-2.841 q -1.11,-2.829 -2.266,-5.628 -2.3,-5.6 -4.772,-11.12 c -3.3,-7.355 -6.786,-14.615 -10.559,-21.725 -3.773,-7.11 -7.8,-14.083 -12.241,-20.778 a 131.727,131.727 0 0 0 -14.837,-18.852 130.153,130.153 0 0 1 12.071,20.435 c 3.452,7.1 6.459,14.406 9.19,21.8 2.731,7.394 5.173,14.892 7.409,22.437 q 1.667,5.664 3.168,11.362 c 0.5,1.9 0.985,3.8 1.45,5.7 l 0.488,1.954 c -0.685,0.7 -1.374,1.394 -2.075,2.083 -1.392,1.385 -2.817,2.745 -4.248,4.092 q -4.3,4.037 -8.8,7.8 c -2.995,2.5 -6.029,4.924 -9.137,7.169 -0.766,0.582 -1.56,1.106 -2.336,1.66 l -1.169,0.821 -1.1,0.719 c -1.484,0.949 -3.034,1.873 -4.656,2.754 a 168.484,168.484 0 0 1 -20.853,9.345 q -5.451,2.063 -11.018,3.909 -2.78,0.923 -5.567,1.788 l -0.967,0.294 -0.967,-0.294 q -2.785,-0.864 -5.567,-1.788 -5.556,-1.848 -11.018,-3.909 a 168.417,168.417 0 0 1 -20.853,-9.345 c -1.622,-0.881 -3.172,-1.8 -4.656,-2.754 l -1.1,-0.719 -1.169,-0.821 c -0.776,-0.554 -1.57,-1.078 -2.336,-1.66 -3.108,-2.245 -6.142,-4.671 -9.137,-7.169 -2.995,-2.498 -5.927,-5.113 -8.8,-7.8 -1.431,-1.347 -2.856,-2.707 -4.249,-4.092 -0.7,-0.689 -1.389,-1.387 -2.074,-2.083 l 0.488,-1.954 c 0.465,-1.9 0.953,-3.8 1.45,-5.7 q 1.5,-5.7 3.168,-11.362 c 2.236,-7.545 4.674,-15.044 7.409,-22.437 2.735,-7.393 5.738,-14.7 9.19,-21.8 a 130.225,130.225 0 0 1 12.07,-20.435 131.868,131.868 0 0 0 -14.837,18.852 c -4.442,6.695 -8.472,13.668 -12.24,20.778 -3.768,7.11 -7.261,14.37 -10.559,21.725 q -2.463,5.52 -4.772,11.12 -1.15,2.8 -2.266,5.628 l -1.1,2.841 c -0.365,0.962 -0.716,1.883 -1.084,2.912 l -0.994,2.78 2.147,2.966 0.965,1.334 0.942,1.276 c 0.631,0.844 1.261,1.683 1.9,2.511 1.274,1.664 2.577,3.3 3.9,4.925 q 3.961,4.874 8.212,9.552 c 2.16,2.362 4.371,4.7 6.665,6.977 a 390.729,390.729 0 0 1 -36.236,-23.905 z"
         transform="translate(-5.918,-93.178)"
         id="path902" />
      <path
         class="cls-5"
         d="m 6827.822,3171.764 c -57.154,-54 -108.273,-57.1 -121.593,-57.1 h -0.269 c -1.565,0 -2.6,0.042 -3.07,0.05 -0.47,-0.01 -1.506,-0.05 -3.07,-0.05 h -0.269 c -13.315,0 -64.429,3.1 -121.587,57.1 -66.782,63.1 -75.36,140.262 -75.36,140.262 0,0 45.264,58.212 90.943,92.681 44.758,33.774 109.173,61.587 109.173,61.587 l 0.136,-0.058 0.133,0.058 c 0,0 63.686,-26.967 109.25,-61.587 46.11,-35.035 90.943,-92.681 90.943,-92.681 0,0 -8.577,-77.166 -75.36,-140.262 z m -222.622,217.86 c -34.465,-26.008 -69.442,-67.123 -82.282,-82.821 a 216.875,216.875 0 0 1 10.692,-35.651 q 2.791,-7.117 6.04,-14.054 c 16.311,-31.746 47.971,-68.175 81.115,-95.422 38.1,-25.711 68.981,-28.119 79.056,-28.119 0.915,0 1.6,0.019 2.1,0.033 0.5,0.014 0.871,0.019 1.1,0.019 0.229,0 0.6,-0.01 1.1,-0.019 0.5,-0.013 1.185,-0.033 2.1,-0.033 11.718,0 51.565,3.256 98.183,42.62 25.464,25.334 49.481,57.957 67.766,94.975 0.509,1.029 0.988,2.051 1.446,3.065 a 224.274,224.274 0 0 1 7.65,24.376 c 0.653,3.178 1.14,5.955 1.6,8.21 -12.769,15.609 -47.47,56.37 -82.332,82.859 a 387.427,387.427 0 0 1 -37.482,24.78 c 2.629,-2.57 5.143,-5.212 7.591,-7.891 q 4.258,-4.679 8.212,-9.551 c 1.318,-1.627 2.622,-3.261 3.9,-4.926 0.641,-0.828 1.271,-1.667 1.9,-2.51 l 0.942,-1.276 0.966,-1.334 2.146,-2.966 -0.994,-2.78 c -0.368,-1.03 -0.718,-1.95 -1.084,-2.913 l -1.1,-2.84 q -1.11,-2.83 -2.265,-5.629 -2.3,-5.6 -4.773,-11.119 c -3.3,-7.355 -6.785,-14.616 -10.558,-21.726 -3.773,-7.11 -7.8,-14.082 -12.241,-20.777 a 131.806,131.806 0 0 0 -14.837,-18.853 130.276,130.276 0 0 1 12.071,20.435 c 3.452,7.1 6.458,14.407 9.19,21.8 2.732,7.393 5.172,14.891 7.408,22.437 q 1.668,5.662 3.169,11.361 0.746,2.849 1.45,5.7 l 0.488,1.953 c -0.685,0.7 -1.374,1.395 -2.075,2.084 -1.392,1.385 -2.817,2.745 -4.249,4.092 q -4.3,4.035 -8.8,7.8 c -2.994,2.5 -6.029,4.924 -9.136,7.169 -0.766,0.581 -1.56,1.105 -2.336,1.66 l -1.169,0.821 -1.1,0.719 c -1.485,0.948 -3.035,1.873 -4.656,2.754 a 168.647,168.647 0 0 1 -20.854,9.345 q -5.451,2.063 -11.018,3.909 -2.778,0.921 -5.567,1.788 l -0.966,0.294 -0.967,-0.294 q -2.785,-0.864 -5.567,-1.788 -5.556,-1.848 -11.018,-3.909 a 168.647,168.647 0 0 1 -20.854,-9.345 c -1.621,-0.881 -3.171,-1.806 -4.655,-2.754 l -1.1,-0.719 -1.169,-0.821 c -0.776,-0.555 -1.569,-1.079 -2.336,-1.66 -3.107,-2.245 -6.141,-4.672 -9.136,-7.169 -2.995,-2.497 -5.928,-5.114 -8.8,-7.8 -1.432,-1.347 -2.857,-2.707 -4.249,-4.092 -0.7,-0.689 -1.39,-1.387 -2.075,-2.084 l 0.488,-1.953 q 0.7,-2.85 1.45,-5.7 1.5,-5.7 3.169,-11.361 c 2.236,-7.546 4.673,-15.045 7.409,-22.437 2.736,-7.392 5.738,-14.7 9.189,-21.8 a 130.276,130.276 0 0 1 12.071,-20.435 131.806,131.806 0 0 0 -14.837,18.853 c -4.442,6.695 -8.473,13.668 -12.24,20.777 -3.767,7.109 -7.261,14.371 -10.559,21.726 q -2.465,5.52 -4.773,11.119 -1.15,2.8 -2.265,5.629 l -1.1,2.84 c -0.366,0.963 -0.716,1.883 -1.084,2.913 l -0.994,2.78 2.146,2.966 0.966,1.334 0.942,1.276 c 0.63,0.843 1.261,1.682 1.9,2.51 1.274,1.665 2.578,3.3 3.9,4.926 q 3.961,4.872 8.212,9.551 c 2.159,2.363 4.371,4.7 6.665,6.977 a 390.519,390.519 0 0 1 -36.236,-23.904 z"
         transform="translate(-5.918,-93.178)"
         id="path904" />
      <path
         class="cls-5"
         d="m 6739.394,3103.364 c 20.034,-15.682 25.9,-49.357 21.059,-56.928 a 23.3,23.3 0 0 1 -7.045,8.923 c -2.2,-38.665 -38.024,-58.1 -52.994,-61.611 -0.644,11.091 -7.344,32.555 -7.564,33.907 -0.22,1.352 -3.312,-17.913 -3.312,-17.913 -23.683,10.834 -28.8,39.348 -28.8,39.348 l -2.108,-2.427 c 0,0 -2.325,12.274 -2.1,13.626 -3.522,-3.245 -4.571,-15.333 -4.571,-15.333 -16.886,39.491 10.079,60.169 10.079,60.169 z"
         transform="translate(-5.918,-93.178)"
         id="path906" />
      <path
         class="cls-4"
         d="m 6755.43,3107.351 c 20.034,-15.683 14.508,-52.92 7.527,-60.042 a 53.281,53.281 0 0 0 -2.9,9.091 c -2.2,-38.665 -37.38,-57.412 -52.351,-60.927 1.982,11.627 -7.987,31.872 -8.207,33.224 -0.22,1.352 -9.258,12.841 -9.258,12.841 -19.373,12.438 -22.851,8.593 -22.851,8.593 l -2.16,-1.378 c 0,0 -1.16,11.7 -0.94,13.055 -3.522,-3.245 -0.454,7.807 -0.454,7.807 8.276,31.709 4.85,36.552 4.85,36.552 z"
         transform="translate(-5.918,-93.178)"
         id="path908" />
      <path
         class="cls-5"
         d="m 6609.193,3101.228 a 48.23,48.23 0 1 0 48.23,48.23 48.23,48.23 0 0 0 -48.23,-48.23 z"
         transform="translate(-5.918,-93.178)"
         id="path910" />
      <path
         class="cls-4"
         d="m 6807.906,3101.228 a 48.23,48.23 0 1 0 48.23,48.23 48.23,48.23 0 0 0 -48.23,-48.23 z"
         transform="translate(-5.918,-93.178)"
         id="path912" />
    </g>
    <g
       id="PANDA_copy_6"
       data-name="PANDA copy 6">
      <path
         class="cls-1"
         d="m 6609.193,3104.659 a 44.8,44.8 0 1 0 44.8,44.8 44.8,44.8 0 0 0 -44.8,-44.8 z"
         transform="translate(-5.918,-93.178)"
         id="path915" />
      <path
         class="cls-3"
         d="m 6609.732,3128.145 a 20.817,20.817 0 1 0 20.817,20.817 20.817,20.817 0 0 0 -20.817,-20.817 z"
         transform="translate(-5.918,-93.178)"
         id="path917" />
      <path
         class="cls-1"
         d="m 6807.906,3104.659 a 44.8,44.8 0 1 0 44.8,44.8 44.8,44.8 0 0 0 -44.8,-44.8 z"
         transform="translate(-5.918,-93.178)"
         id="path919" />
      <path
         class="cls-3"
         d="m 6808.445,3128.145 a 20.817,20.817 0 1 0 20.817,20.817 20.817,20.817 0 0 0 -20.817,-20.817 z"
         transform="translate(-5.918,-93.178)"
         id="path921" />
      <path
         class="cls-3"
         d="m 6831.593,3171.2 c -56.323,-53.215 -106.7,-56.273 -119.826,-56.273 h -0.265 c -1.542,0 -2.562,0.042 -3.025,0.05 -0.463,-0.01 -1.485,-0.05 -3.025,-0.05 h -0.266 c -13.121,0 -63.493,3.055 -119.82,56.273 -65.812,62.179 -74.265,138.223 -74.265,138.223 0,0 44.607,57.366 89.622,91.334 44.107,33.284 107.586,60.693 107.586,60.693 l 0.134,-0.057 0.132,0.057 c 0,0 62.76,-26.575 107.662,-60.693 45.44,-34.525 89.621,-91.334 89.621,-91.334 0,0 -8.453,-76.045 -74.265,-138.223 z"
         transform="translate(-5.918,-93.178)"
         id="path923" />
      <path
         class="cls-1"
         d="m 6789.9,3260.985 c -39.569,-16.322 -51.3,24.41 -51.3,24.41 0,0 -5.26,16.724 11.895,41.373 8.018,11.523 23.458,24.713 23.964,26.231 0.506,1.518 11.738,16.561 11.738,16.561 l 16.532,-20.412 -2.531,8.266 c 0,0 19.737,-6.748 26.653,-20.918 v 8.266 c 0,0 8.1,-3.88 12.821,-23.616 l 3.432,6.86 a 40.755,40.755 0 0 0 0.606,-28.382 c -3.774,-10.414 -13.243,-15.238 -13.243,-15.238 l 9.2,-0.858 c 0,0 -24.492,-12.115 -49.767,-22.543 z"
         transform="translate(-5.918,-93.178)"
         id="path925" />
      <path
         class="cls-1"
         d="m 6627.035,3260.985 c 39.569,-16.322 51.3,24.41 51.3,24.41 0,0 5.26,16.724 -11.894,41.373 -8.019,11.523 -23.458,24.713 -23.964,26.231 -0.506,1.518 -11.738,16.561 -11.738,16.561 l -16.532,-20.412 2.53,8.266 c 0,0 -19.737,-6.748 -26.653,-20.918 v 8.266 c 0,0 -8.1,-3.88 -12.82,-23.616 l -3.432,6.86 a 40.749,40.749 0 0 1 -0.606,-28.382 c 3.774,-10.414 13.242,-15.238 13.242,-15.238 l -9.2,-0.858 c 0,0 24.487,-12.115 49.767,-22.543 z"
         transform="translate(-5.918,-93.178)"
         id="path927" />
      <path
         class="cls-1"
         d="m 6833.128,3171.252 c -57.154,-54 -108.273,-57.1 -121.593,-57.1 h -0.269 c -1.565,0 -2.6,0.043 -3.07,0.051 -0.47,-0.01 -1.506,-0.051 -3.07,-0.051 h -0.269 c -13.315,0 -64.429,3.1 -121.587,57.1 -66.782,63.1 -75.36,140.262 -75.36,140.262 0,0 45.264,58.212 90.943,92.681 44.758,33.775 109.173,61.587 109.173,61.587 l 0.136,-0.058 0.133,0.058 c 0,0 63.686,-26.966 109.25,-61.587 46.11,-35.035 90.943,-92.681 90.943,-92.681 0,0 -8.577,-77.166 -75.36,-140.262 z m -222.628,217.86 c -34.466,-26.007 -69.442,-67.123 -82.282,-82.821 a 216.875,216.875 0 0 1 10.692,-35.651 q 2.792,-7.117 6.04,-14.053 c 16.311,-31.746 47.971,-68.176 81.115,-95.422 38.1,-25.712 68.981,-28.119 79.056,-28.119 0.915,0 1.6,0.018 2.1,0.032 0.5,0.014 0.872,0.02 1.105,0.02 0.233,0 0.6,-0.01 1.1,-0.02 0.5,-0.014 1.185,-0.032 2.1,-0.032 11.718,0 51.565,3.255 98.183,42.619 25.463,25.335 49.481,57.957 67.766,94.975 0.509,1.03 0.988,2.051 1.446,3.065 a 224.282,224.282 0 0 1 7.65,24.377 c 0.653,3.177 1.14,5.955 1.6,8.21 -12.769,15.608 -47.47,56.37 -82.332,82.858 a 387.436,387.436 0 0 1 -37.482,24.781 c 2.629,-2.571 5.143,-5.212 7.591,-7.891 q 4.258,-4.678 8.212,-9.552 c 1.318,-1.627 2.622,-3.261 3.9,-4.925 0.641,-0.828 1.271,-1.667 1.9,-2.511 l 0.942,-1.276 0.966,-1.334 2.146,-2.966 -0.994,-2.78 c -0.368,-1.029 -0.718,-1.95 -1.084,-2.912 l -1.1,-2.841 q -1.11,-2.829 -2.265,-5.628 -2.3,-5.6 -4.773,-11.12 c -3.3,-7.355 -6.786,-14.615 -10.558,-21.725 -3.772,-7.11 -7.8,-14.083 -12.241,-20.778 a 131.8,131.8 0 0 0 -14.837,-18.852 130.23,130.23 0 0 1 12.071,20.435 c 3.452,7.1 6.458,14.406 9.189,21.8 2.731,7.394 5.173,14.892 7.409,22.437 q 1.668,5.664 3.169,11.362 0.745,2.849 1.45,5.7 l 0.488,1.954 c -0.685,0.7 -1.374,1.394 -2.075,2.083 -1.392,1.385 -2.817,2.745 -4.249,4.092 q -4.3,4.036 -8.8,7.8 c -2.995,2.5 -6.029,4.924 -9.136,7.169 -0.767,0.582 -1.56,1.106 -2.336,1.66 l -1.169,0.821 -1.1,0.719 c -1.485,0.949 -3.035,1.873 -4.656,2.754 a 168.5,168.5 0 0 1 -20.854,9.345 q -5.451,2.063 -11.018,3.909 -2.778,0.921 -5.567,1.788 l -0.966,0.294 -0.967,-0.294 q -2.785,-0.864 -5.567,-1.788 -5.556,-1.848 -11.018,-3.909 a 168.5,168.5 0 0 1 -20.854,-9.345 c -1.621,-0.881 -3.171,-1.8 -4.656,-2.754 l -1.1,-0.719 -1.169,-0.821 c -0.776,-0.554 -1.57,-1.078 -2.336,-1.66 -3.107,-2.245 -6.142,-4.671 -9.136,-7.169 -2.994,-2.498 -5.928,-5.113 -8.8,-7.8 -1.432,-1.347 -2.857,-2.707 -4.249,-4.092 -0.7,-0.689 -1.39,-1.387 -2.075,-2.083 l 0.488,-1.954 q 0.7,-2.85 1.45,-5.7 1.5,-5.7 3.169,-11.362 c 2.236,-7.545 4.673,-15.044 7.409,-22.437 2.736,-7.393 5.737,-14.7 9.189,-21.8 a 130.23,130.23 0 0 1 12.071,-20.435 131.8,131.8 0 0 0 -14.837,18.852 c -4.442,6.7 -8.473,13.668 -12.241,20.778 -3.768,7.11 -7.26,14.37 -10.558,21.725 q -2.465,5.52 -4.773,11.12 -1.15,2.8 -2.265,5.628 l -1.1,2.841 c -0.366,0.962 -0.716,1.883 -1.084,2.912 l -0.994,2.78 2.146,2.966 0.966,1.334 0.942,1.276 c 0.63,0.844 1.26,1.683 1.9,2.511 1.274,1.664 2.578,3.3 3.9,4.925 q 3.962,4.874 8.212,9.552 c 2.159,2.362 4.371,4.7 6.665,6.977 a 390.729,390.729 0 0 1 -36.24,-23.905 z"
         transform="translate(-5.918,-93.178)"
         id="path929" />
      <path
         class="cls-1"
         d="m 6751.539,3102.255 c 20.034,-15.682 15.19,-50.455 10.347,-58.025 a 23.313,23.313 0 0 1 -7.045,8.922 c -2.2,-38.665 -39.848,-56.511 -54.819,-60.026 1.982,11.627 -1.981,31.365 -2.2,32.717 -0.219,1.352 -7.485,-16.493 -7.485,-16.493 -19.374,12.437 -27.74,40.828 -27.74,40.828 l -3.963,-3.515 c 0,0 0.221,10.545 0.441,11.9 -3.523,-3.245 -6.825,-14.33 -6.825,-14.33 -12.549,39.747 13.87,58.4 13.87,58.4 z"
         transform="translate(-5.918,-93.178)"
         id="path931" />
      <path
         class="cls-1"
         d="m 6748.316,3404.6 c -5.929,3.018 -11.859,3.45 -18.219,2.695 -3.646,-0.432 -9.561,-3.91 -14.367,-6.437 l -0.4,-3.158 c 0,0 11.767,-2.689 19.529,-7.217 a 70.35,70.35 0 0 0 14,-11.218 c 0,0 1.941,-5.067 0.971,-6.685 -0.97,-1.618 -13.692,-10.026 -13.692,-10.026 0,0 -23.473,6.253 -27.92,6.253 -4.447,0 -28.03,-6.253 -28.03,-6.253 0,0 -12.722,8.409 -13.692,10.026 -0.97,1.617 0.97,6.685 0.97,6.685 a 70.338,70.338 0 0 0 14,11.218 c 7.762,4.528 19.529,7.217 19.529,7.217 l -0.4,3.158 c -4.806,2.527 -10.721,6.005 -14.366,6.437 -6.361,0.755 -12.29,0.323 -18.22,-2.695 -5.93,-3.018 -20.807,-10.673 -20.807,-10.673 l 24.365,29.863 11.535,-3.989 c 0.3,0 22.223,-9.71 25.065,-10.97 2.841,1.26 24.762,10.97 25.064,10.97 l 11.536,3.989 24.365,-29.863 c 0,0 -14.886,7.655 -20.816,10.673 z"
         transform="translate(-5.918,-93.178)"
         id="path933" />
      <polygon
         class="cls-3"
         points="6640.645,3197.646 6646.782,3191.508 6641.468,3186.194 6635.331,3192.331 6629.193,3186.194 6623.879,3191.508 6630.016,3197.646 6623.879,3203.783 6629.193,3209.097 6635.331,3202.96 6641.468,3209.097 6646.782,3203.783 "
         id="polygon935" />
      <polygon
         class="cls-3"
         points="6774.428,3197.646 6780.566,3191.508 6775.252,3186.194 6769.114,3192.331 6762.976,3186.194 6757.662,3191.508 6763.8,3197.646 6757.662,3203.783 6762.977,3209.097 6769.114,3202.96 6775.251,3209.097 6780.565,3203.783 "
         id="polygon937" />
      <path
         class="cls-1"
         d="m 6654.375,3127.477 c 0.555,0.185 53.859,102 53.859,102 l 52.193,-102.736 c 0,0 -32.2,-11.663 -57.006,-10.552 -24.806,1.111 -49.046,11.288 -49.046,11.288 z"
         transform="translate(-5.918,-93.178)"
         id="path939" />
      <path
         class="cls-6"
         d="m 6742.566,3110.235 c 27.211,-60.548 -17.645,-88.519 -29.416,-91.283 -0.858,11.24 -12.647,30.14 -12.82,31.2 -0.173,1.06 -14.525,-17.362 -14.525,-17.362 -15.665,19.568 -16.114,42.023 -15.941,43.086 -5.36,-0.787 -13.356,-9.525 -13.356,-9.525 -1.1,30.3 18.9,44.179 18.9,44.179 z"
         transform="translate(-5.918,-93.178)"
         id="path941" />
      <rect
         class="cls-1"
         x="6653.5908"
         y="3008.2109"
         width="97.300003"
         height="23.375999"
         rx="11.688"
         id="rect943" />
      <polygon
         class="cls-3"
         points="6711.021,3374.814 6698.219,3373.264 6702.18,3353.407 "
         id="polygon945"
         style="fill:#0f0d22;fill-opacity:1" />
      <path
         class="cls-3"
         d="m 6467.587,3294.919 q 9.82,10.655 9.821,33.625 v 47.1 q 0,9.882 1.728,12.192 c 1.152,1.54 5.983,2.31 5.983,2.31 v 14.118 l -16.746,-0.129 q -15.4,0 -15.4,-37.732 v -45.432 q 0,-19.506 -7.778,-22.2 v -10.524 q 6.6,-2.437 7.228,-11.679 l 0.471,-6.161 0.079,-1.411 v -44.919 q 0,-38.888 18.306,-38.887 h 14 v 14.5 l -3.312,0.257 q -4.558,1.029 -4.557,13.989 v 47.357 q 0,22.077 -9.823,33.626 z"
         transform="translate(-5.918,-93.178)"
         id="path947" />
      <path
         class="cls-3"
         d="m 7824.689,3261.294 v -47.357 q 0,-12.962 -4.557,-13.989 l -3.312,-0.257 v -14.5 h 14 q 18.307,0 18.306,38.887 V 3269 l 0.078,1.411 0.472,6.161 q 0.63,9.24 7.228,11.679 v 10.524 q -7.777,2.694 -7.778,22.2 v 45.425 q 0,37.733 -15.4,37.732 l -16.747,0.129 v -14.118 c 0,0 4.832,-0.77 5.983,-2.31 1.151,-1.54 1.729,-5.6 1.729,-12.192 v -47.1 q 0,-22.971 9.821,-33.625 -9.823,-11.547 -9.823,-33.622 z"
         transform="translate(-5.918,-93.178)"
         id="path949" />
      <path
         class="cls-1"
         d="m 6529.274,3333.945 c 0,0 2.551,-28 10.612,-39.741 0,0 5.97,47.111 8.273,54.48 2.303,7.369 -18.885,-14.739 -18.885,-14.739 z"
         transform="translate(-5.918,-93.178)"
         id="path951" />
      <polygon
         class="cls-3"
         points="6529.402,3240.334 6526.078,3256.361 6534.21,3265.157 "
         id="polygon953"
         style="fill:#0f0d22;fill-opacity:1" />
      <path
         class="cls-1"
         d="m 6721.623,3106.524 -0.027,0.163 -0.013,0.081 c 0.01,0 0.065,-0.145 0.093,-0.212 a 6.784,6.784 0 0 0 0.338,-1.089 l -0.2,-0.06 -0.086,0.464 z"
         transform="translate(-5.918,-93.178)"
         id="path955" />
      <path
         class="cls-1"
         d="m 6740.537,3067.5 a 69.876,69.876 0 0 0 -5.72,-17.661 79.108,79.108 0 0 0 -8.973,-14.5 87.022,87.022 0 0 1 5.263,16.4 65.376,65.376 0 0 1 1.426,16.674 54.137,54.137 0 0 1 -2.947,15.381 48.1,48.1 0 0 1 -2.939,6.723 c -0.558,1.052 -1.157,2.057 -1.775,3.022 -0.311,0.482 -0.626,0.949 -0.954,1.411 l -0.476,0.666 a 111.86,111.86 0 0 0 0.579,-11.4 85.055,85.055 0 0 0 -0.858,-11.693 60.213,60.213 0 0 0 -2.695,-10.887 59.022,59.022 0 0 1 -1.322,10.733 71.866,71.866 0 0 1 -3,9.851 85.826,85.826 0 0 1 -4.135,9.011 c -0.762,1.433 -1.552,2.834 -2.381,4.191 -0.049,0.084 -0.1,0.165 -0.152,0.248 0,-1.1 0.011,-2.192 0,-3.287 q -0.061,-6.041 -0.368,-12.045 c -0.225,-4.005 -0.541,-7.992 -0.99,-11.936 -0.476,-3.948 -1.086,-7.855 -1.914,-11.628 -0.51,3.868 -1.245,7.617 -2.1,11.3 -0.881,3.687 -1.881,7.3 -2.959,10.877 q -1.639,5.358 -3.5,10.574 -0.927,2.61 -1.905,5.188 l -0.448,1.169 c -0.166,-0.41 -0.334,-0.814 -0.5,-1.228 -0.6,-1.531 -1.177,-3.1 -1.736,-4.68 -1.117,-3.17 -2.132,-6.427 -3.051,-9.746 -0.477,-1.66 -0.881,-3.338 -1.312,-5.031 -0.376,-1.694 -0.8,-3.406 -1.125,-5.132 -0.728,-3.458 -1.236,-6.976 -1.693,-10.576 -0.878,3.452 -1.716,7 -2.326,10.622 -0.349,1.811 -0.588,3.632 -0.876,5.473 -0.234,1.835 -0.492,3.69 -0.672,5.549 q -0.594,5.588 -0.836,11.294 c -0.019,0.474 -0.031,0.952 -0.047,1.428 -0.41,-0.364 -0.823,-0.723 -1.228,-1.1 a 48.468,48.468 0 0 1 -3.91,-4.011 19.959,19.959 0 0 1 -3.274,-4.9 27.434,27.434 0 0 0 -0.417,6.851 c 0.09,2.333 0.318,4.662 0.621,6.956 0.303,2.294 0.667,4.6 1.093,6.87 q 0.318,1.707 0.678,3.416 l 0.376,1.716 c 0.141,0.589 0.248,1.122 0.454,1.8 l 33.912,-7.688 v 0.082 l 0.039,-0.136 c 0.1,-0.469 12.467,2.331 12.467,2.331 l 0.185,-1 c 0.173,-0.993 0.35,-1.978 0.5,-2.974 0.014,-0.086 0.024,-0.172 0.038,-0.259 h 15.008 a 11.212,11.212 0 0 1 -0.357,2.846 c 0.27,-0.73 0.532,-1.468 0.776,-2.208 0.537,-1.64 1.02,-3.287 1.432,-4.951 a 72.268,72.268 0 0 0 1.764,-10.082 70.862,70.862 0 0 0 -0.74,-19.914 z"
         transform="translate(-5.918,-93.178)"
         id="path957" />
      <path
         class="cls-1"
         d="m 6736.658,3105.432 -0.191,0.513 c -0.024,0.058 -0.019,0.06 -0.01,0.051 l 0.021,-0.01 h 0.01 0.01 v 0 c -0.03,0.065 0.062,-0.124 0.138,-0.3 a 9.889,9.889 0 0 0 0.553,-1.663 c -0.028,0.076 -0.052,0.154 -0.081,0.23 z"
         transform="translate(-5.918,-93.178)"
         id="path959" />
      <rect
         class="cls-3"
         x="6658.6611"
         y="3016.167"
         width="87.161003"
         height="7.4640002"
         rx="3.7320001"
         id="rect961" />
      <path
         class="cls-1"
         d="m 7062.9,3372.277 -4.773,-9.543 a 275.127,275.127 0 0 0 -24.545,-40.054 c -13.729,17.532 -31.78,32.358 -53.814,44.176 l -7.024,3.768 -17.78,-22.587 10.1,-5.315 c 21.3,-11.214 38.082,-25.693 49.87,-43.037 8.389,-12.3 15.03,-27.121 19.812,-44.178 h -66.461 v -27.689 h 102.825 l -2.392,11.444 c -4.669,22.329 -11.136,41.838 -19.256,58.1 a 363.929,363.929 0 0 1 34.295,50.694 l 4.321,7.731 z"
         transform="translate(-5.918,-93.178)"
         id="path963" />
      <path
         class="cls-3"
         d="m 7071.11,3227.818 -2.392,11.444 c -4.669,22.329 -11.136,41.838 -19.256,58.1 a 363.929,363.929 0 0 1 34.295,50.694 l 4.321,7.731 -25.181,16.487 -4.773,-9.543 a 275.127,275.127 0 0 0 -24.545,-40.054 c -13.729,17.532 -31.78,32.358 -53.814,44.176 l -7.024,3.768 -17.78,-22.587 10.1,-5.315 c 21.3,-11.214 38.082,-25.693 49.87,-43.037 8.389,-12.3 15.03,-27.121 19.812,-44.178 h -66.461 v -27.689 h 102.828 m 27.627,-22.448 h -152.9 v 72.585 h 56.054 a 101.946,101.946 0 0 1 -5.5,9.082 c -9.717,14.3 -23.767,26.339 -41.779,35.82 l -10.1,5.315 -23.863,12.56 16.68,21.19 17.78,22.587 11.65,14.8 16.6,-8.9 7.025,-3.767 a 203.447,203.447 0 0 0 40.076,-27.9 q 4.032,6.918 7.595,14.038 l 4.772,9.542 11.279,22.552 21.1,-13.812 25.181,-16.487 17.51,-11.464 -10.21,-18.268 -4.321,-7.732 a 384.823,384.823 0 0 0 -27.847,-42.8 283.568,283.568 0 0 0 15.185,-50.446 l 2.393,-11.444 5.653,-27.042 z"
         transform="translate(-5.918,-93.178)"
         id="path965" />
      <path
         class="cls-1"
         d="m 7153.029,3237.4 c -1.777,24.053 -4.817,44.473 -9.033,60.686 -4.805,18.431 -11.992,34.545 -21.362,47.9 l -6.047,8.617 25.436,14.209 4.9,-7.134 a 171.129,171.129 0 0 0 22.725,-48.786 c 5.584,-18.846 9.706,-43.364 12.254,-72.876 l 0.8,-9.243 -28.952,-3.192 z"
         transform="translate(-5.918,-93.178)"
         id="path967" />
      <path
         class="cls-3"
         d="m 7153.753,3227.579 28.952,3.192 -0.8,9.243 c -2.548,29.512 -6.67,54.031 -12.254,72.876 a 171.129,171.129 0 0 1 -22.725,48.786 l -4.9,7.134 -25.436,-14.209 6.047,-8.617 c 9.37,-13.351 16.557,-29.465 21.362,-47.9 4.216,-16.213 7.256,-36.633 9.033,-60.686 l 0.724,-9.823 m -20.675,-24.864 -1.712,23.213 -0.725,9.822 c -1.677,22.706 -4.494,41.779 -8.371,56.688 -4.124,15.817 -10.185,29.5 -18.011,40.65 l -6.047,8.618 -14.288,20.361 21.715,12.131 25.436,14.21 17.857,9.975 11.589,-16.855 4.9,-7.133 a 193.466,193.466 0 0 0 25.764,-55.168 c 6,-20.249 10.4,-46.264 13.084,-77.282 l 0.8,-9.243 1.885,-21.842 -21.791,-2.4 -28.952,-3.192 -23.135,-2.551 z"
         transform="translate(-5.918,-93.178)"
         id="path969" />
      <path
         class="cls-1"
         d="m 7349.584,3371.81 -15.135,-24.113 12.443,-3.321 c 21.07,-5.622 36.146,-14.284 44.808,-25.745 5.994,-7.992 10.1,-18.8 12.238,-32.207 h -77.559 v -27.531 h 108.6 l -0.46,9.94 c -1.456,31.376 -9.586,55.558 -24.166,71.875 -12.153,13.548 -30.344,23.44 -54.077,29.417 z m 75.281,-144.679 h -88.954 v -16.7 h 88.954 z"
         transform="translate(-5.918,-93.178)"
         id="path971" />
      <path
         class="cls-3"
         d="m 7424.865,3210.431 v 16.7 h -88.954 v -16.7 h 88.954 m 10.116,48.462 -0.46,9.94 c -1.456,31.376 -9.586,55.558 -24.166,71.875 -12.153,13.548 -30.344,23.44 -54.077,29.417 l -6.694,1.685 -15.135,-24.113 12.443,-3.321 c 21.07,-5.622 36.146,-14.284 44.808,-25.745 5.994,-7.992 10.1,-18.8 12.238,-32.207 h -77.559 v -27.531 h 108.6 m 12.332,-70.911 h -133.849 v 48.463 h -9.532 v 72.428 h 66.37 c -6.186,5.605 -16.143,10.331 -29.194,13.814 l -12.445,3.321 -29.4,7.848 16.178,25.776 15.135,24.112 8.673,13.818 15.82,-3.982 6.695,-1.686 c 28.149,-7.088 50.12,-19.266 65.307,-36.2 18.135,-20.3 28.179,-49.16 29.88,-85.825 l 0.461,-9.941 1.088,-23.487 h -11.181 v -48.463 z"
         transform="translate(-5.918,-93.178)"
         id="path973" />
      <path
         class="cls-1"
         d="m 7483.69,3368.033 -12.517,-26.217 11.092,-2.926 c 26.14,-6.9 46.11,-18.763 59.353,-35.269 11.232,-13.947 18.864,-32.666 22.695,-55.654 l 2.13,-12.779 26.907,13.686 -1.234,6.937 c -5.426,30.5 -16.988,55.126 -34.365,73.178 -16.151,16.826 -38.493,29.255 -66.394,36.934 z m 41.224,-80.01 -7.618,-6.523 a 202.5,202.5 0 0 0 -34.318,-23.465 l -9.7,-5.321 17.293,-22.579 7.131,3.858 c 15.078,8.156 27.893,16.39 38.091,24.471 l 7.324,5.8 z"
         transform="translate(-5.918,-93.178)"
         id="path975" />
      <path
         class="cls-3"
         d="m 7490.571,3230.135 7.131,3.858 c 15.078,8.156 27.894,16.39 38.091,24.471 l 7.324,5.8 -18.2,23.754 -7.618,-6.523 a 202.5,202.5 0 0 0 -34.318,-23.465 l -9.7,-5.321 17.293,-22.579 m 75.873,5.053 26.906,13.686 -1.234,6.937 c -5.426,30.5 -16.988,55.126 -34.365,73.178 -16.151,16.826 -38.493,29.255 -66.394,36.934 l -7.667,2.11 -12.517,-26.217 11.092,-2.926 c 26.14,-6.9 46.11,-18.763 59.353,-35.269 11.232,-13.947 18.864,-32.666 22.695,-55.654 l 2.131,-12.779 m -82.044,-33.915 -11.651,15.213 -17.293,22.578 -15.9,20.756 22.921,12.575 9.7,5.321 a 180.123,180.123 0 0 1 30.514,20.835 l 5.83,4.992 c -8.754,5.771 -19.443,10.332 -31.986,13.641 l -11.093,2.926 -26.211,6.915 11.68,24.463 12.517,26.217 8.1,16.957 18.117,-4.985 7.667,-2.11 c 31.856,-8.768 57.639,-23.246 76.633,-43.031 20.5,-21.294 34.053,-49.83 40.271,-84.8 l 1.235,-6.934 2.916,-16.393 -14.84,-7.549 -26.907,-13.686 -27.286,-13.88 -5.034,30.2 -0.775,4.648 a 307.048,307.048 0 0 0 -35.143,-21.9 l -7.13,-3.857 -16.853,-9.118 z"
         transform="translate(-5.918,-93.178)"
         id="path977" />
      <path
         class="cls-19"
         d="m 7660.281,3371.7 -16.64,-24.065 13.365,-3.3 c 19.587,-4.839 32.782,-11.9 39.217,-21 5.965,-8.361 8.978,-21.647 8.978,-39.521 v -6.077 h -36.39 v 19.234 h -28.469 v -19.234 h -12.865 v -27.453 h 12.865 v -20.3 h 28.469 v 20.3 h 36.39 v -20.614 h 28.627 v 20.614 h 14.039 v 27.453 h -14.039 v 5.294 c 0,27.044 -6.007,47.611 -17.854,61.13 -10.3,11.728 -26.9,20.466 -49.337,25.978 z"
         transform="translate(-5.918,-93.178)"
         id="path979" />
      <path
         class="cls-4"
         d="m 7733.828,3229.669 v 20.614 h 14.039 v 27.453 h -14.039 v 5.294 c 0,27.044 -6.007,47.611 -17.854,61.13 -10.3,11.729 -26.9,20.466 -49.337,25.978 l -6.356,1.561 -16.64,-24.065 13.365,-3.3 c 19.587,-4.839 32.782,-11.9 39.217,-21 5.965,-8.361 8.978,-21.647 8.978,-39.521 v -6.077 h -36.39 v 19.234 h -28.469 v -19.234 h -12.865 v -27.453 h 12.865 v -20.3 h 28.469 v 20.3 h 36.39 v -20.614 h 28.627 m 22.448,-22.449 h -73.523 v 0.314 h -64.86 v 20.3 h -12.865 v 72.349 h 12.865 v 19.234 h 44.3 c -2.96,1.048 -6.453,2.1 -10.571,3.121 l -13.366,3.3 -31.583,7.8 18.5,26.758 16.639,24.065 8.8,12.722 15.021,-3.688 6.356,-1.561 c 26.992,-6.629 47.466,-17.721 60.853,-32.967 12.717,-14.513 20.3,-34.234 22.648,-58.788 h 14.824 v -72.349 h -14.039 v -20.61 z"
         transform="translate(-5.918,-93.178)"
         id="path981" />
      <path
         class="cls-1"
         d="m 7263.318,3237.4 c 1.777,24.053 4.816,44.473 9.032,60.686 4.806,18.431 11.993,34.545 21.363,47.9 l 6.046,8.617 -25.435,14.209 -4.9,-7.134 a 171.13,171.13 0 0 1 -22.726,-48.786 c -5.583,-18.846 -9.706,-43.364 -12.254,-72.876 l -0.8,-9.243 28.952,-3.192 z"
         transform="translate(-5.918,-93.178)"
         id="path983" />
      <path
         class="cls-3"
         d="m 7262.593,3227.579 0.725,9.823 c 1.777,24.053 4.816,44.473 9.032,60.686 4.806,18.431 11.993,34.545 21.363,47.9 l 6.046,8.617 -25.435,14.209 -4.9,-7.134 a 171.13,171.13 0 0 1 -22.726,-48.786 c -5.583,-18.845 -9.706,-43.364 -12.254,-72.876 l -0.8,-9.243 28.952,-3.192 m 20.675,-24.863 -23.135,2.55 -28.952,3.192 -21.79,2.4 1.885,21.842 0.8,9.242 c 2.678,31.019 7.084,57.034 13.1,77.323 a 193.4,193.4 0 0 0 25.749,55.126 l 4.907,7.135 11.589,16.855 17.857,-9.975 25.435,-14.21 21.716,-12.131 -14.288,-20.361 -6.047,-8.617 c -7.827,-11.152 -13.888,-24.834 -18.015,-40.665 -3.874,-14.895 -6.69,-33.969 -8.368,-56.676 l -0.724,-9.82 -1.713,-23.212 z"
         transform="translate(-5.918,-93.178)"
         id="path985" />
      <path
         class="cls-17"
         d="m 7271.646,3180.237 a 11,11 0 1 1 -11,11 11.013,11.013 0 0 1 11,-11 m 0,-32.232 a 43.232,43.232 0 1 0 43.233,43.232 43.232,43.232 0 0 0 -43.233,-43.232 z"
         transform="translate(-5.918,-93.178)"
         id="path987" />
    </g>
    <g
       id="GAFAS_copy_6"
       data-name="GAFAS copy 6">
      <path
         class="cls-1"
         d="m 6751.046,3367.057 c -18.248,0 -33.1,-14.25 -33.1,-31.764 a 30.39,30.39 0 0 1 0.274,-4.049 25.064,25.064 0 0 0 -9.929,-2.125 24.142,24.142 0 0 0 -9.815,2.107 30.319,30.319 0 0 1 0.277,4.067 c 0,17.514 -14.847,31.764 -33.1,31.764 -18.253,0 -33.094,-14.25 -33.094,-31.764 0,-0.265 0.02,-0.793 0.02,-0.793 l 0.01,-0.105 c 0.279,-3.484 0.336,-3.8 0.358,-3.92 2.414,-15.338 16.48,-26.946 32.711,-26.946 13.432,0 25.652,8.03 30.669,19.838 a 31.94,31.94 0 0 1 11.925,-2.325 32.941,32.941 0 0 1 12.1,2.348 c 5.022,-11.986 17.02,-19.861 30.685,-19.861 16.195,0 30.243,11.563 32.708,26.907 a 39.072,39.072 0 0 1 0.364,4 c 0,0.062 0.023,0.6 0.023,0.861 0.014,17.51 -14.827,31.76 -33.081,31.76 z m 0,-55.473 c -13.807,0 -25.04,10.636 -25.04,23.709 0,13.073 11.233,23.711 25.04,23.711 13.807,0 25.041,-10.637 25.041,-23.711 0,-13.074 -11.234,-23.709 -25.041,-23.709 z m -85.383,0 c -13.807,0 -25.039,10.636 -25.039,23.709 0,13.073 11.232,23.707 25.039,23.707 13.807,0 25.04,-10.637 25.04,-23.711 0,-13.074 -11.234,-23.705 -25.04,-23.705 z"
         transform="translate(-5.918,-93.178)"
         id="path992" />
      <path
         class="cls-3"
         d="m 6665.663,3306.029 c 13.769,0 25.439,8.746 29.265,20.735 a 29.111,29.111 0 0 1 13.329,-3.222 30.963,30.963 0 0 1 13.53,3.2 c 3.835,-11.976 15.5,-20.711 29.259,-20.711 15.309,0 28.026,10.811 30.249,24.869 0.119,0.466 0.328,3.7 0.328,3.7 0,0 0.018,0.466 0.018,0.7 0,16.137 -13.724,29.265 -30.595,29.265 -16.871,0 -30.6,-13.128 -30.6,-29.265 a 28.082,28.082 0 0 1 0.552,-5.511 28.063,28.063 0 0 0 -12.708,-3.164 26.348,26.348 0 0 0 -5.317,0.547 25.418,25.418 0 0 0 -7.264,2.658 28.062,28.062 0 0 1 0.544,5.47 c 0,16.137 -13.725,29.264 -30.6,29.264 -16.875,0 -30.594,-13.127 -30.594,-29.264 0,-0.234 0.018,-0.7 0.018,-0.7 0,0 0.268,-3.361 0.325,-3.675 2.214,-14.069 14.935,-24.89 30.251,-24.89 m 0,55.475 c 15.186,0 27.54,-11.759 27.54,-26.211 0,-14.452 -12.354,-26.209 -27.54,-26.209 -15.186,0 -27.54,11.758 -27.54,26.209 0,14.451 12.354,26.211 27.54,26.211 m 85.383,0 c 15.186,0 27.54,-11.758 27.54,-26.211 0,-14.453 -12.354,-26.209 -27.54,-26.209 -15.186,0 -27.54,11.758 -27.54,26.209 0,14.451 12.354,26.211 27.54,26.211 m -85.383,-60.475 v 0 a 36.387,36.387 0 0 0 -23.234,8.324 33.969,33.969 0 0 0 -11.949,20.74 c -0.044,0.255 -0.111,0.774 -0.377,4.1 l -0.01,0.106 v 0.1 c 0,0 -0.022,0.6 -0.022,0.895 0,18.893 15.967,34.264 35.594,34.264 a 36.081,36.081 0 0 0 25.08,-9.967 33.4,33.4 0 0 0 10.515,-24.3 q 0,-1.221 -0.093,-2.45 a 21.736,21.736 0 0 1 7.13,-1.225 21.993,21.993 0 0 1 7.246,1.264 q -0.09,1.209 -0.09,2.411 c 0,18.893 15.968,34.264 35.6,34.265 a 36.078,36.078 0 0 0 25.08,-9.968 33.4,33.4 0 0 0 10.515,-24.3 c 0,-0.3 -0.022,-0.895 -0.022,-0.895 v -0.069 -0.057 a 37.819,37.819 0 0 0 -0.406,-4.326 33.974,33.974 0 0 0 -11.934,-20.6 36.617,36.617 0 0 0 -44.5,-1.51 14.114,14.114 0 0 1 -21.517,10.707 34.394,34.394 0 0 0 -10.633,1.7 35.018,35.018 0 0 0 -10.678,-12.4 36.18,36.18 0 0 0 -21.283,-6.814 z m 0,55.475 c -12.428,0 -22.54,-9.516 -22.54,-21.211 a 20.458,20.458 0 0 1 6.522,-14.9 23.1,23.1 0 0 1 16.018,-6.307 c 12.429,0 22.54,9.514 22.54,21.209 a 20.46,20.46 0 0 1 -6.522,14.9 23.092,23.092 0 0 1 -16.018,6.308 z m 85.383,5 v -5 c -12.429,0 -22.54,-9.515 -22.54,-21.211 0,-11.696 10.111,-21.209 22.54,-21.209 12.429,0 22.54,9.514 22.54,21.209 a 20.459,20.459 0 0 1 -6.522,14.9 23.092,23.092 0 0 1 -16.018,6.308 v 5 z"
         transform="translate(-5.918,-93.178)"
         id="path994" />
      <path
         class="cls-5"
         d="m 6665.663,3361.5 c -15.186,0 -27.54,-11.759 -27.54,-26.211 0,-14.452 12.354,-26.209 27.54,-26.209 15.186,0 27.54,11.758 27.54,26.209 0,14.451 -12.354,26.211 -27.54,26.211 z"
         transform="translate(-5.918,-93.178)"
         id="path996" />
      <path
         class="cls-4"
         d="m 6751.046,3361.5 c -15.186,0 -27.54,-11.758 -27.54,-26.211 0,-14.453 12.354,-26.209 27.54,-26.209 15.186,0 27.54,11.758 27.54,26.209 0,14.451 -12.354,26.211 -27.54,26.211 z"
         transform="translate(-5.918,-93.178)"
         id="path998" />
      <path
         class="cls-5"
         d="m 6665.663,3361.5 c -15.186,0 -27.54,-11.759 -27.54,-26.211 0,-14.452 12.354,-26.209 27.54,-26.209 15.186,0 27.54,11.758 27.54,26.209 0,14.451 -12.354,26.211 -27.54,26.211 z"
         transform="translate(-5.918,-93.178)"
         id="path1000" />
      <path
         class="cls-4"
         d="m 6751.046,3361.5 c -15.186,0 -27.54,-11.758 -27.54,-26.211 0,-14.453 12.354,-26.209 27.54,-26.209 15.186,0 27.54,11.758 27.54,26.209 0,14.451 -12.354,26.211 -27.54,26.211 z"
         transform="translate(-5.918,-93.178)"
         id="path1002" />
      <path
         class="cls-3"
         d="m 6752.5,3361.293 -23.858,-41.3 c 0,0 -11.471,14.157 -0.416,29.812 a 26.71,26.71 0 0 0 24.274,11.488 z"
         transform="translate(-5.918,-93.178)"
         id="path1004" />
      <path
         class="cls-3"
         d="m 6667.059,3361.407 -23.858,-41.3 c 0,0 -11.471,14.156 -0.417,29.812 a 26.712,26.712 0 0 0 24.275,11.488 z"
         transform="translate(-5.918,-93.178)"
         id="path1006" />
    </g>
  </g>
  <path
     class="cls-3"
     d="m 929.01604,342.66633 1.30078,-0.79695 a 12.264861,12.264861 0 0 0 4.56473,-4.75119 c -5.61835,-1.31284 -8.65981,-5.77069 -8.65981,-12.8767 0,-8.76528 4.78665,-13.59269 13.47557,-13.59269 4.96483,0 13.29519,2.03086 13.29519,15.63037 0,14.60948 -6.88051,24.14994 -20.45017,28.35531 l -3.52877,1.09438 z m 10.50094,-42.69254 c -8.65238,0 -13.41704,-4.8274 -13.41704,-13.59268 0,-8.76528 4.76402,-13.59338 13.41704,-13.59338 8.65301,0 13.41792,4.8274 13.41792,13.59338 0,8.76596 -4.76555,13.59268 -13.41792,13.59268 z"
     id="path396-6"
     style="fill:#ffffff;stroke-width:0.680587" />
  <path
     class="cls-1"
     d="m 939.51698,275.51009 q 10.69472,0 10.69542,10.87102 6e-4,10.87102 -10.69542,10.87032 -10.69604,0 -10.69475,-10.87032 0,-10.87034 10.69475,-10.87102 m 0.18388,37.86106 q 10.57304,0 10.57304,12.9087 0,20.00927 -18.53384,25.75477 v -7.84376 a 15.019198,15.019198 0 0 0 6.92711,-9.38802 q -9.72292,0 -9.72238,-10.56135 0,-10.87034 10.75338,-10.87034 m -0.18389,-43.30576 c -10.106,0 -16.13955,6.09942 -16.13955,16.31572 0,10.21628 6.03355,16.31503 16.13955,16.31503 10.1059,0 16.14012,-6.09943 16.14012,-16.31503 0,-10.21562 -6.03336,-16.31572 -16.14012,-16.31572 z m 0.18389,37.86107 c -10.14492,0 -16.19808,6.09941 -16.19808,16.31503 0,6.69017 2.52655,11.58087 7.03134,14.0936 a 10.937716,10.937716 0 0 1 -1.63353,1.21279 l -2.6005,1.59257 v 18.28196 l 7.05625,-2.18742 c 14.63267,-4.53475 22.36695,-15.23902 22.36695,-30.95514 0,-16.56482 -11.20182,-18.35339 -16.01758,-18.35339 z"
     id="path398-7"
     style="fill:#0f0d22;stroke-width:0.680587" />
</svg>
