<svg id="Line" height="512" viewBox="0 0 64 64" width="512" xmlns="http://www.w3.org/2000/svg"><path d="m60 13h-36a3 3 0 0 0 -3 3v26a5 5 0 0 0 5.49 5c2.7-.26 4.51-2.62 4.51-5.88v-6.89a3.17 3.17 0 0 1 3.14-3.23 3 3 0 0 1 2.86 3v16a5 5 0 0 0 5 5c2.69 0 5-2.12 5-6.15v-10.62a3.17 3.17 0 0 1 3.14-3.23 3 3 0 0 1 2.86 3v6a5 5 0 0 0 5.49 5 5.13 5.13 0 0 0 4.51-5.17v-27.83a3 3 0 0 0 -3-3zm-1 11a1 1 0 0 1 -2 0v-4a1 1 0 0 0 -1-1h-4a1 1 0 0 1 0-2h4a3 3 0 0 1 3 3z" fill="#c4a2fc"/><circle cx="58" cy="58" fill="#c4a2fc" r="5"/><g fill="#151a6a"><path d="m49.5 2.5a5.12 5.12 0 0 0 -6.34-.72 87.78 87.78 0 0 0 -28.42 28.06.32.32 0 0 0 0 .09 12.61 12.61 0 0 0 -8.54 3.89c-4.2 4.18-5.2 15.61-5.2 16.1a1 1 0 0 0 1.08 1.08c.49 0 11.93-1 16.1-5.2a12.63 12.63 0 0 0 3.89-8.5h.09a87.78 87.78 0 0 0 28.06-28.46 5.13 5.13 0 0 0 -.72-6.34zm-32.74 41.89c-2.93 2.93-10.64 4.12-13.63 4.48.36-3 1.55-10.7 4.48-13.63a10.63 10.63 0 0 1 7.22-3.34 5.27 5.27 0 0 1 3.8 1.43c.29.54-.33 3.49-2.62 5.77a6.13 6.13 0 0 1 -2.01 1.18 1 1 0 1 0 .75 1.85 8 8 0 0 0 2.71-1.61 12 12 0 0 0 2.64-4 10.24 10.24 0 0 1 -3.34 7.87zm31.76-36.6a86 86 0 0 1 -26.7 27.29 6.8 6.8 0 0 0 -1.75-3.14 6.8 6.8 0 0 0 -3.14-1.75 86 86 0 0 1 27.28-26.71 3.12 3.12 0 0 1 4.31 4.31z"/><path d="m37.38 10.66a83.64 83.64 0 0 0 -7.08 6.21 1 1 0 1 0 1.4 1.43 81.51 81.51 0 0 1 6.91-6.07 1 1 0 0 0 .17-1.4 1 1 0 0 0 -1.4-.17z"/></g></svg>