<svg id="Line" height="512" viewBox="0 0 64 64" width="512" xmlns="http://www.w3.org/2000/svg"><g fill="#ff008c"><path d="m58 58.5h-34a5 5 0 0 1 -5-5v-3a5 5 0 0 1 5-5h34a5 5 0 0 1 5 5v3a5 5 0 0 1 -5 5zm-1-7a1 1 0 0 0 -1-1h-3a1 1 0 0 0 0 2h3a1 1 0 0 0 1-1zm-7 0a1 1 0 0 0 -1-1h-3a1 1 0 0 0 0 2h3a1 1 0 0 0 1-1z"/><path d="m58 43.5h-34a5 5 0 0 1 -5-5v-3a5 5 0 0 1 5-5h34a5 5 0 0 1 5 5v3a5 5 0 0 1 -5 5zm-1-7a1 1 0 0 0 -1-1h-3a1 1 0 0 0 0 2h3a1 1 0 0 0 1-1zm-7 0a1 1 0 0 0 -1-1h-3a1 1 0 0 0 0 2h3a1 1 0 0 0 1-1z"/><path d="m58 28.5h-34a5 5 0 0 1 -5-5v-3a5 5 0 0 1 5-5h34a5 5 0 0 1 5 5v3a5 5 0 0 1 -5 5zm-1-7a1 1 0 0 0 -1-1h-3a1 1 0 0 0 0 2h3a1 1 0 0 0 1-1zm-7 0a1 1 0 0 0 -1-1h-3a1 1 0 0 0 0 2h3a1 1 0 0 0 1-1z"/></g><path d="m42 20.78c0-.27 0-.53 0-.78a14.5 14.5 0 0 0 -28.78-2.48 13 13 0 0 0 .78 26h25.5a11.49 11.49 0 0 0 2.5-22.74zm-14-2.28a1 1 0 1 1 1-1 1 1 0 0 1 -1 1zm11.5 23h-3.5v-7.5l2.42-2a3 3 0 0 0 1.58.5 3 3 0 1 0 -3-3 2.93 2.93 0 0 0 .18 1l-2.8 2.24a1 1 0 0 0 -.38.78v8h-5v-21.2a3 3 0 1 0 -2 0v21.18h-6v-6a1 1 0 0 0 -.37-.78l-2.81-2.24a2.93 2.93 0 0 0 .18-1 3 3 0 1 0 -3 3 3 3 0 0 0 1.58-.48l2.42 2v5.5h-5a11 11 0 0 1 0-22h.12a1 1 0 0 0 1-.89 12.5 12.5 0 0 1 24.88 1.39 11.75 11.75 0 0 1 -.1 1.49 1 1 0 0 0 .86 1.1 9.5 9.5 0 0 1 -1.26 18.91zm-.5-12a1 1 0 1 1 1 1 1 1 0 0 1 -1-1zm-24 3a1 1 0 1 1 1-1 1 1 0 0 1 -1 1z" fill="#173761"/></svg>