<svg id="Line" height="512" viewBox="0 0 64 64" width="512" xmlns="http://www.w3.org/2000/svg"><path d="m35 43.5v-23h-7a3 3 0 0 0 -3 3v28a3 3 0 0 0 3 3h20a3 3 0 0 0 3-3v-3h-11a5 5 0 0 1 -5-5z" fill="#ff008c"/><path d="m23 51.5v-23h-7a3 3 0 0 0 -3 3v28a3 3 0 0 0 3 3h20a3 3 0 0 0 3-3v-3h-11a5 5 0 0 1 -5-5z" fill="#ff008c"/><path d="m60 12.5h-20a3 3 0 0 0 -3 3v28a3 3 0 0 0 3 3h20a3 3 0 0 0 3-3v-28a3 3 0 0 0 -3-3zm-14.29 19.29a1 1 0 0 1 -1.42 1.42l-3-3a1 1 0 0 1 0-1.42l3-3a1 1 0 0 1 1.42 1.42l-2.3 2.29zm6.29-1.29h-4a1 1 0 0 1 0-2h4a1 1 0 0 1 0 2zm6.71-.29-3 3a1 1 0 0 1 -1.42-1.42l2.3-2.29-2.3-2.29a1 1 0 0 1 1.42-1.42l3 3a1 1 0 0 1 0 1.42z" fill="#ff008c"/><g fill="#173761"><path d="m48 1.5h-44a3 3 0 0 0 -3 3v28a3 3 0 0 0 3 3h19v8h-1.93a3 3 0 0 0 -2.5 1.34l-1.33 2a3 3 0 0 0 2.5 4.66h12.52a3 3 0 0 0 2.5-4.66l-1.33-2a3 3 0 0 0 -2.5-1.34h-1.93v-8h19a3 3 0 0 0 3-3v-28a3 3 0 0 0 -3-3zm-16.24 44.5 1.33 2a1 1 0 0 1 -.83 1.55h-12.52a1 1 0 0 1 -.83-1.55l1.33-2a1 1 0 0 1 .83-.45h9.86a1 1 0 0 1 .83.45zm-4.76-2.5h-2v-8h2zm22-11a1 1 0 0 1 -1 1h-44a1 1 0 0 1 -1-1v-28a1 1 0 0 1 1-1h44a1 1 0 0 1 1 1z"/><path d="m7.71 9.79a1 1 0 0 0 -1.42 1.42l7.3 7.29-7.3 7.29a1 1 0 0 0 1.42 1.42l8-8a1 1 0 0 0 0-1.42z"/><path d="m18.71 9.79a1 1 0 0 0 -1.42 1.42l7.3 7.29-7.3 7.29a1 1 0 0 0 1.42 1.42l8-8a1 1 0 0 0 0-1.42z"/><path d="m45 25.5h-15a1 1 0 0 0 0 2h15a1 1 0 0 0 0-2z"/></g></svg>