<svg id="Icons" height="512" viewBox="0 0 64 64" width="512" xmlns="http://www.w3.org/2000/svg"><g fill="#c4a2fc"><path d="m45 41h17.739a19 19 0 0 0 -17.739-15.949z"/><path d="m46.245 43 12.089 13.432a18.9 18.9 0 0 0 4.666-12.432c0-.338-.033-.667-.051-1z"/><path d="m43.257 42.669a1 1 0 0 1 -.257-.669v-16.949a18.987 18.987 0 1 0 13.94 32.822z"/></g><path d="m22 1c-11.776 0-21 3.953-21 9v24c0 5.047 9.224 9 21 9s21-3.953 21-9v-24c0-5.047-9.225-9-21-9zm19 25c0 3.311-7.8 7-19 7s-19-3.689-19-7v-4.126c3.323 3.053 10.484 5.126 19 5.126s15.677-2.073 19-5.126zm0-8c0 3.311-7.8 7-19 7s-19-3.689-19-7v-4.126c3.323 3.053 10.484 5.126 19 5.126s15.677-2.073 19-5.126zm-19-15c11.2 0 19 3.689 19 7s-7.8 7-19 7-19-3.689-19-7 7.8-7 19-7zm0 38c-11.2 0-19-3.689-19-7v-4.126c3.323 3.053 10.484 5.126 19 5.126s15.677-2.073 19-5.126v4.126c0 3.311-7.8 7-19 7z" fill="#151a6a"/></svg>