<?xml version="1.0" encoding="UTF-8" standalone="no"?>
<svg
        xmlns:dc="http://purl.org/dc/elements/1.1/"
        xmlns:cc="http://creativecommons.org/ns#"
        xmlns:rdf="http://www.w3.org/1999/02/22-rdf-syntax-ns#"
        xmlns="http://www.w3.org/2000/svg"
        xmlns:sodipodi="http://sodipodi.sourceforge.net/DTD/sodipodi-0.dtd"
        xmlns:inkscape="http://www.inkscape.org/namespaces/inkscape"
        height="185"
        viewBox="0 0 43.359365 21.679688"
        width="370"
        version="1.1"
        id="svg60"
        sodipodi:docname="route.svg"
        inkscape:version="1.0 (6e3e5246a0, 2020-05-07)">
  <metadata
     id="metadata66">
    <rdf:RDF>
      <cc:Work
         rdf:about="">
        <dc:format>image/svg+xml</dc:format>
        <dc:type
           rdf:resource="http://purl.org/dc/dcmitype/StillImage" />
        <dc:title></dc:title>
      </cc:Work>
    </rdf:RDF>
  </metadata>
  <defs
     id="defs64" />
  <sodipodi:namedview
     inkscape:document-rotation="0"
     pagecolor="#ffffff"
     bordercolor="#666666"
     borderopacity="1"
     objecttolerance="10"
     gridtolerance="10"
     guidetolerance="10"
     inkscape:pageopacity="0"
     inkscape:pageshadow="2"
     inkscape:window-width="1920"
     inkscape:window-height="1017"
     id="namedview62"
     showgrid="false"
     inkscape:zoom="2.4335938"
     inkscape:cx="236.91802"
     inkscape:cy="120.52962"
     inkscape:window-x="0"
     inkscape:window-y="390"
     inkscape:window-maximized="1"
     inkscape:current-layer="svg60" />
  <g
     id="Page-1"
     fill="none"
     fill-rule="evenodd"
     transform="matrix(0.34733996,0,0,0.34733996,22.281807,0.32691309)">
    <g
       id="075---Route-To-Mountain"
       fill-rule="nonzero">
      <rect
         id="Rectangle-path"
         fill="#e8edfc"
         height="4"
         rx="1"
         width="58"
         x="1"
         y="55" />
      <path
         id="Shape"
         d="m 58,55 h -3 c 0.552285,0 1,0.447715 1,1 v 2 c 0,0.552285 -0.447715,1 -1,1 h 3 c 0.552285,0 1,-0.447715 1,-1 v -2 c 0,-0.552285 -0.447715,-1 -1,-1 z"
         fill="#cad9fc" />
      <path
         id="path4"
         d="m 7,45 h 4 V 55 H 7 Z"
         fill="#e8edfc" />
      <path
         id="path6"
         d="m 11,33 v -3 c 0,-0.552285 -0.447715,-1 -1,-1 H 8 c -0.5522848,0 -1,0.447715 -1,1 v 3 z"
         fill="#e8edfc" />
      <path
         id="path10"
         d="m 20.414,37.586 -4,-4 C 16.039014,33.210901 15.53039,33.000113 15,33 h -3 c 0.53039,1.13e-4 1.039015,0.210901 1.414,0.586 l 4,4 c 0.780764,0.781 0.780764,2.047 0,2.828 l -4,4 C 13.039015,44.789099 12.53039,44.999887 12,45 h 3 c 0.53039,-1.13e-4 1.039014,-0.210901 1.414,-0.586 l 4,-4 c 0.780764,-0.781 0.780764,-2.047 0,-2.828 z"
         fill="#cad9fc"
         style="fill:#c4a2fc;fill-opacity:1" />
      <path
         id="path14"
         d="m 43.05,34.564 -6.056,-2.2 C 36.735855,32.269939 36.527781,32.07381 36.41864,31.82167 36.309499,31.569529 36.308906,31.283591 36.417,31.031 L 39,25 h -3 l -2.583,6.028 c -0.108094,0.252591 -0.107501,0.538529 0.0016,0.79067 0.109141,0.25214 0.317215,0.448269 0.57536,0.54233 l 6.056,2.2 c 2.371398,0.862108 3.950031,3.115756 3.95,5.639 V 55 h 3 V 40.2 c -0.0012,-2.522145 -1.579635,-4.774267 -3.95,-5.636 z"
         fill="#cad9fc"
         style="fill:#c4a2fc;fill-opacity:1" />
      <path
         id="path16"
         d="m 37.38,8.43 -2.81,2.34 c -0.339012,0.282854 -0.824256,0.307321 -1.19,0.06 L 31.55,9.62 c -0.330593,-0.2300179 -0.769407,-0.2300179 -1.1,0 l -1.83,1.21 c -0.365744,0.247321 -0.850988,0.222855 -1.19,-0.06 L 24.44,8.28 30.2,1.37 C 30.399373,1.1325977 30.694746,0.99717838 31.004737,1.0010533 31.314728,1.0049282 31.606624,1.1476884 31.8,1.39 Z"
         fill="#ffffff" />
      <path
         id="path18"
         d="M 31.8,1.39 C 31.606624,1.1476884 31.314728,1.0049281 31.004737,1.0010533 30.694746,0.99717838 30.399373,1.1325977 30.2,1.37 l -0.726,0.871 4.906,6.189 -2.049,1.706 1.049,0.694 c 0.365744,0.247321 0.850988,0.222854 1.19,-0.06 l 2.81,-2.34 z"
         fill="#e8edfc" />
      <path
         id="path22"
         d="M 39.82,11.52 37.38,8.43 35.57,9.937 36.82,11.52 47.49,25 h 3 z"
         fill="#cad9fc"
         style="fill:#c4a2fc;fill-opacity:1" />
      <path
         id="path24"
         d="m 18.19,9.57 -2.56,3.07 c -0.35127,0.419006 -0.972714,0.48115 -1.4,0.14 L 11.88,10.9 14.32,7.42 C 14.491983,7.179768 14.760617,7.0269845 15.055004,7.0019712 15.349391,6.9769579 15.639951,7.0822283 15.85,7.29 Z"
         fill="#ffffff" />
      <path
         id="path26"
         d="M 21.04,12.36 10.51,25 H 2 l 9.88,-14.1 2.35,1.88 c 0.427286,0.34115 1.04873,0.279006 1.4,-0.14 l 2.56,-3.07 z"
         fill="#a4c2f7"
         style="fill:#c4a2fc;fill-opacity:1" />
      <path
         id="path28"
         d="m 47.67,10.26 -1.9,1.52 c -0.427286,0.34115 -1.04873,0.279006 -1.4,-0.14 L 42.27,9.12 44.15,7.29 C 44.360049,7.0822283 44.650609,6.9769579 44.944996,7.0019712 45.239383,7.0269845 45.508017,7.179768 45.68,7.42 Z"
         fill="#ffffff" />
      <path
         id="path30"
         d="m 58,25 h -7.51 l -10.67,-13.48 2.45,-2.4 2.1,2.52 c 0.35127,0.419006 0.972714,0.48115 1.4,0.14 l 1.9,-1.52 z"
         fill="#a4c2f7"
         style="fill:#c4a2fc;fill-opacity:1" />
      <path
         id="path32"
         d="m 47.67,10.26 -1.9,1.52 c -0.008,0.006 -0.018,0.007 -0.026,0.013 L 55,25 h 3 z"
         fill="#7facfa"
         style="fill:#c4a2fc;fill-opacity:1" />
      <g
         fill="#ffffff"
         id="g46">
        <path
           id="path34"
           d="M 4,58 V 56 C 4,55.447715 4.4477152,55 5,55 H 2 c -0.5522848,0 -1,0.447715 -1,1 v 2 c 0,0.552285 0.4477152,1 1,1 H 5 C 4.4477152,59 4,58.552285 4,58 Z" />
        <path
           id="path36"
           d="m 1,34 v 10 c 0,0.552285 0.4477152,1 1,1 H 5 C 4.4477152,45 4,44.552285 4,44 V 34 C 4,33.447715 4.4477152,33 5,33 H 2 c -0.5522848,0 -1,0.447715 -1,1 z" />
        <path
           id="path38"
           d="m 5,25 9.88,-14.1 1.9,-2.706 -0.927,-0.9 C 15.642951,7.0862283 15.352392,6.9809579 15.058004,7.0059712 14.763617,7.0309845 14.494983,7.183768 14.323,7.424 L 11.88,10.9 2,25 Z" />
        <path
           id="path40"
           d="m 7,45 h 3 V 55 H 7 Z" />
        <path
           id="path42"
           d="m 10,30 c 0.0037,-0.351297 0.194211,-0.674036 0.5,-0.847 C 10.35033,29.057519 10.177472,29.004625 10,29 H 8 c -0.5522848,0 -1,0.447715 -1,1 v 3 h 3 z" />
        <path
           id="path44"
           d="m 3.099,16.724 h 8 v 2 h -8 z"
           transform="matrix(0.574,-0.819,0.819,0.574,-11.49,13.367)" />
      </g>
      <path
         id="path48"
         d="m 59,26 c 0.552285,0 1,-0.447715 1,-1 0,-0.552285 -0.447715,-1 -1,-1 H 58.521 L 46.5,6.847 C 46.159638,6.3660697 45.625404,6.0586924 45.038566,6.0061483 44.451728,5.9536043 43.871386,6.1611851 43.451,6.574 L 39.913,10.03 32.58,0.768 C 32.201956,0.2887992 31.627335,0.00645194 31.017,0 H 30.992 C 30.390876,-0.00111282 29.820645,0.266217 29.437,0.729 L 20.967,10.892 16.558,6.583 C 16.138668,6.1659766 15.556964,5.954784 14.967761,6.0056504 14.378558,6.0565169 13.841656,6.3642798 13.5,6.847 L 8.575,13.875 C 8.3621633,14.167377 8.3237679,14.551886 8.4745877,14.880576 8.6254076,15.209265 8.94194,15.430915 9.3023894,15.460239 9.6628387,15.489563 10.011036,15.32199 10.213,15.022 l 1.875,-2.674 1.522,1.217 c 0.851972,0.682196 2.093558,0.555367 2.79,-0.285 l 1.865,-2.235 1.42,1.387 L 10.044,24 H 3.922 l 1.7,-2.426 C 5.9390114,21.121679 5.8293212,20.498011 5.377,20.181 4.9246788,19.863989 4.3010115,19.973679 3.984,20.426 L 1.48,24 H 1 c -0.55228475,0 -1,0.447715 -1,1 0,0.552285 0.44771525,1 1,1 h 32.132 l -3.648,5.472 c -0.490357,0.735639 -0.631269,1.650113 -0.385108,2.499242 0.24616,0.849129 0.854327,1.546447 1.662108,1.905758 L 35.546,38 c 0.261268,0.115937 0.460434,0.338137 0.547203,0.610484 0.08677,0.272348 0.05285,0.568809 -0.0932,0.814516 L 27.428,54 h -5.249 c 0.384289,-1.307854 1.228061,-2.432883 2.376,-3.168 0.459501,-0.306518 0.583518,-0.927499 0.277,-1.387 -0.306518,-0.459501 -0.927499,-0.583518 -1.387,-0.277 -1.129234,0.73645 -2.047333,1.754146 -2.664,2.953 -0.389051,-0.406062 -0.839143,-0.748861 -1.334,-1.016 -0.319217,-0.160769 -0.699955,-0.139026 -0.998794,0.05704 -0.298839,0.196065 -0.470378,0.536665 -0.45,0.8935 0.02038,0.356834 0.229577,0.675692 0.548794,0.836461 0.470838,0.269746 0.868959,0.65002 1.16,1.108 H 12 v -8 h 3 c 0.796068,0.0023 1.559904,-0.314287 2.121,-0.879 l 4,-4 c 1.171146,-1.1715 1.171146,-3.0705 0,-4.242 l -4,-4 C 16.559651,32.314665 15.79598,31.998179 15,32 h -3 v -2 c 0,-1.104569 -0.89543,-2 -2,-2 H 8 c -1.1045695,0 -2,0.895431 -2,2 v 2 H 2 c -1.1045695,0 -2,0.895431 -2,2 v 10 c 0,1.10457 0.8954305,2 2,2 h 4 v 8 H 2 c -1.1045695,0 -2,0.895431 -2,2 v 2 c 0,1.10457 0.8954305,2 2,2 h 56 c 1.10457,0 2,-0.89543 2,-2 v -2 c 0,-1.104569 -0.89543,-2 -2,-2 h -1.821 c 0.383551,-1.308224 1.2275,-2.433488 2.376,-3.168 0.459501,-0.306518 0.583518,-0.927499 0.277,-1.387 -0.306518,-0.459501 -0.927499,-0.583518 -1.387,-0.277 -1.129234,0.73645 -2.047333,1.754146 -2.664,2.953 -0.389051,-0.406062 -0.839143,-0.748861 -1.334,-1.016 -0.493466,-0.248528 -1.094972,-0.04997 -1.3435,0.4435 -0.248528,0.493466 -0.04997,1.094972 0.4435,1.3435 0.470838,0.269746 0.868959,0.65002 1.16,1.108 H 48 V 40.2 C 47.9936,37.258552 46.154281,34.632922 43.392,33.622 L 37.335,31.422 39.659,26 Z M 14.854,12 13.238,10.707 15.138,8 15.151,8.01 16.827,9.646 Z M 46.312,10.065 45.138,11 l -1.5,-1.806 1.228,-1.2 z M 42.2,10.6 l 1.4,1.685 c 0.380304,0.455313 0.943758,0.717428 1.537,0.715 0.457193,-0.0012 0.90055,-0.156944 1.258,-0.442 L 47.463,11.703 56.078,24 H 50.972 L 41.161,11.607 Z M 31.012,2.01 35.984,8.29 33.931,10 32.123,8.8 C 31.456923,8.3337813 30.571896,8.3282076 29.9,8.786 L 28.07,10 25.87,8.168 Z m -6.425,7.69 2.207,1.837 c 0.357825,0.297927 0.808385,0.461671 1.274,0.463 0.392322,-4.22e-4 0.775499,-0.11851 1.1,-0.339 L 31,10.454 l 1.821,1.205 c 0.733656,0.498923 1.709509,0.449497 2.389,-0.121 L 37.227,9.859 48.421,24 H 12.65 Z M 8,30 h 2 v 2 H 8 Z m -6,4 h 13 c 0.265195,5.7e-5 0.519507,0.105451 0.707,0.293 l 4,4 c 0.390382,0.3905 0.390382,1.0235 0,1.414 l -4,4 C 15.519507,43.894549 15.265195,43.999943 15,44 H 2 Z m 6,12 h 2 v 8 H 8 Z M 58,58 H 2 V 56 H 58 Z M 35.5,30.634 c -0.216282,0.504923 -0.215375,1.076576 0.0025,1.58081 0.217884,0.504235 0.633563,0.896661 1.149492,1.08519 l 6.056,2.2 c 1.973586,0.722321 3.287631,2.598388 3.292,4.7 V 54 H 29.748 l 7.978,-13.562 c 0.433198,-0.736833 0.531526,-1.623463 0.270302,-2.437308 C 37.735077,37.186847 37.139105,36.523071 36.358,36.176 L 31.573,34.049 C 31.303955,33.929083 31.101464,33.696649 31.01955,33.413708 30.937636,33.130768 30.984632,32.826104 31.148,32.581 L 35.535,26 h 1.949 z"
         fill="#428dff"
         style="fill:#151a6a;fill-opacity:1" />
      <path
         id="path50"
         d="m 5,38 h 9 c 0.552285,0 1,-0.447715 1,-1 0,-0.552285 -0.447715,-1 -1,-1 H 5 c -0.5522848,0 -1,0.447715 -1,1 0,0.552285 0.4477152,1 1,1 z"
         fill="#428dff"
         style="fill:#151a6a;fill-opacity:1" />
      <path
         id="path52"
         d="m 11,41 c 0,-0.552285 -0.447715,-1 -1,-1 H 5 c -0.5522848,0 -1,0.447715 -1,1 0,0.552285 0.4477152,1 1,1 h 5 c 0.552285,0 1,-0.447715 1,-1 z"
         fill="#428dff"
         style="fill:#151a6a;fill-opacity:1" />
      <path
         id="path54"
         d="m 24.118,13.359 -5,6 c -0.354015,0.424155 -0.297155,1.054986 0.127,1.409 0.424155,0.354015 1.054985,0.297155 1.409,-0.127 l 5,-6 c 0.229007,-0.27438 0.294239,-0.650091 0.171122,-0.985607 -0.123116,-0.335517 -0.415876,-0.579864 -0.768,-0.641 C 24.704999,12.953256 24.347007,13.08462 24.118,13.359 Z"
         fill="#428dff"
         style="fill:#151a6a;fill-opacity:1" />
      <path
         id="path56"
         d="M 7.119,18.725 C 6.5667153,18.728 6.1165376,18.282785 6.1135,17.7305 6.11046,17.178215 6.5557153,16.728038 7.108,16.725 h 0.011 c 0.5522848,0 1,0.447715 1,1 0,0.552285 -0.4477153,1 -1,1 z"
         fill="#428dff"
         style="fill:#151a6a;fill-opacity:1" />
    </g>
  </g>
  <g
     fill="none"
     id="006---Hiking"
     transform="matrix(0.34733996,0,0,0.34733996,0.16601967,0.31240889)">
    <g
       transform="translate(1,1)"
       id="Icons">
      <path
         fill="#cad9fc"
         d="m 37,0 c -0.510174,0.00696354 -1.016185,0.09298528 -1.5,0.255 2.081402,0.64261054 3.501032,2.5666561 3.501032,4.745 0,2.1783439 -1.41963,4.1023895 -3.501032,4.745 0.483815,0.1620147 0.989826,0.2480365 1.5,0.255 2.761424,0 5,-2.2385762 5,-5 0,-2.7614237 -2.238576,-5 -5,-5 z"
         id="Shape-5" />
      <path
         fill="#e8edfc"
         d="m 0.107,56.553 1,-2 C 1.2761023,54.214592 1.6216946,54.00058 2,54 h 113.53125 c 0.37867,2.02e-4 0.72474,0.214271 0.894,0.553 l 1,2 c 0.15486,0.309902 0.13829,0.677879 -0.0438,0.972606 C 117.19936,57.820332 116.8777,57.999815 116.53126,58 H 1 C 0.65373787,57.999469 0.3323922,57.819847 0.15054209,57.525181 -0.03130801,57.230515 -0.04777976,56.862743 0.107,56.553 Z"
         id="path14-1"
         sodipodi:nodetypes="ccccccsccsc" />
      <path
         fill="#cad9fc"
         d="m 120.00238,56.553 -1,-2 c -0.16911,-0.338408 -0.5147,-0.55242 -0.893,-0.553 h -3 c 0.37866,2.02e-4 0.72473,0.214271 0.894,0.553 l 0.99999,2 c 0.15486,0.309902 0.13829,0.677879 -0.0438,0.972606 -0.18208,0.294726 -0.50374,0.474209 -0.85018,0.474394 h 2.99999 c 0.34627,-5.31e-4 0.66761,-0.180153 0.84946,-0.474819 0.18185,-0.294666 -0.30272,-0.972181 0.0435,-0.972181 z"
         id="path16-2"
         sodipodi:nodetypes="ccccccsccssc"
         style="fill:#c4a2fc;fill-opacity:1" />
      <path
         fill="#a4c2f7"
         d="m 28.48,12.57 -0.54,1.56 c -0.223714,0.346462 -0.395534,0.723791 -0.51,1.12 l -4.18,12.36 c -0.02799,0.08535 -0.05135,0.172139 -0.07,0.26 l -0.59,1.71 c -0.174612,0.501576 -0.541553,0.913103 -1.019912,1.143841 C 21.091729,30.954579 20.541238,30.985577 20.04,30.81 l -6.5,-2.25 c -1.014536,-0.326822 -1.618669,-1.366793 -1.4,-2.41 0.140396,-0.543041 0.500157,-1.003311 0.993216,-1.270701 C 13.626275,24.611909 14.208281,24.561453 14.74,24.74 l 0.95,0.33 C 14.646963,24.704267 14.093577,23.566254 14.45,22.52 L 19.03,9.3 c 0.365733,-1.0430366 1.503746,-1.5964233 2.55,-1.24 l 5.67,1.97 c 1.039297,0.363722 1.589106,1.499099 1.23,2.54 z"
         id="path18-7"
         style="fill:#c4a2fc;fill-opacity:1" />
      <path
         fill="#7facfa"
         d="M 27.25,10.03 21.58,8.06 C 20.913761,7.8332873 20.177396,7.9734207 19.641,8.429 l 4.609,1.6 c 1.039297,0.363722 1.589106,1.499099 1.23,2.54 l -0.54,1.56 c -0.223714,0.346462 -0.395534,0.723791 -0.51,1.12 L 20.25,27.61 c -0.02799,0.08535 -0.05135,0.172139 -0.07,0.26 l -0.59,1.71 c -0.117786,0.337445 -0.3252,0.636466 -0.6,0.865 l 1.054,0.365 c 0.501238,0.175577 1.051729,0.144579 1.530088,-0.08616 0.478359,-0.230738 0.8453,-0.642266 1.019912,-1.143841 l 0.59,-1.71 c 0.01865,-0.08786 0.04201,-0.174654 0.07,-0.26 l 4.18,-12.36 c 0.114466,-0.396209 0.286286,-0.773538 0.51,-1.12 l 0.54,-1.56 c 0.358733,-1.042047 -0.193109,-2.177928 -1.234,-2.54 z"
         id="path20-0"
         style="fill:#c4a2fc;fill-opacity:1" />
    </g>
    <g
       transform="translate(1,8)"
       fill="#ffffff"
       id="Layer_2">
      <path
         d="m 1.001,50 h 8 v 2 h -8 z"
         id="Rectangle-path-9" />
      <path
         d="m 23.04,23.81 -0.284,-0.1 c -1.145,8.034 -1.026,8.081 -1.626,8.888 -6.622,9.114 -5.234,7.2 -6.94,9.55 -0.878582,1.121691 -0.837152,2.709178 0.09874,3.783515 0.935896,1.074337 2.502716,1.333002 3.73426,0.616485 C 17.289926,46.10746 16.779732,45.374977 16.620641,44.534641 16.46155,43.694306 16.668689,42.826018 17.19,42.148 c 1.687,-2.32 0.361,-0.495 6.94,-9.55 0.29,-0.39 0.8,-6.11 0.87,-6.6"
         id="path24-3"
         style="fill:#c4a2fc;fill-opacity:1" />
      <path
         d="m 13.15,21.37 c 0.241,0.161 -0.165,0 6.89,2.44 0.667748,0.228613 1.406483,0.09005 1.946,-0.365 L 16.54,21.56 C 15.972676,21.382435 15.510236,20.967567 15.272367,20.422769 15.034498,19.877972 15.044578,19.256792 15.3,18.72 v -0.01 c 0.467177,-0.875968 1.498916,-1.286127 2.44,-0.97 1.538,0.534 0.808,0.316 0.51,0.11 -0.763626,-0.505819 -1.091854,-1.461784 -0.8,-2.33 C 22.456,1.063 22.028,1.941 22.64,1.43 L 21.58,1.06 c -1.046254,-0.35642333 -2.184267,0.1969634 -2.55,1.24 -2.255,6.535 -0.644,1.854 -4.58,13.22 -0.346593,1.045622 0.203531,2.176926 1.24,2.55 -0.931,-0.323 -1.6,-0.67 -2.48,-0.23 -0.38859,0.185187 -0.707544,0.490121 -0.91,0.87 v 0.01 c -0.475653,0.968165 -0.100058,2.139138 0.85,2.65 z"
         id="path26-6" />
      <path
         d="M 1,51 H 4 C 3.6534068,50.998951 3.3320714,50.818508 3.1507631,50.523118 2.9694547,50.227728 2.9540307,49.859518 3.11,49.55 l 1,-2 C 4.2772879,47.211745 4.6226426,46.998324 5,46.99999 L 2,47 C 1.6226426,46.9983 1.2772879,47.211745 1.11,47.55 l -1,2 c -0.15596925,0.309518 -0.14054526,0.677728 0.0407631,0.973118 C 0.33207141,50.818508 0.65340679,50.998951 1,51 Z"
         id="path28-0" />
    </g>
    <g
       transform="translate(-1)"
       fill="#428dff"
       id="Layer_3">
      <path
         d="M 7.021,60 C 6.4687153,60.002761 6.0187615,59.557285 6.0160001,59.005 6.0132386,58.452715 6.4587153,58.002762 7.011,58 h 0.01 c 0.5522847,0 1,0.447715 1,1 0,0.552285 -0.4477153,1 -1,1 z"
         id="path31"
         style="fill:#151a6a;fill-opacity:1" />
      <path
         d="m 39,12 c 3.313708,0 6,-2.6862915 6,-6 0,-3.3137085 -2.686292,-6 -6,-6 -3.313708,0 -6,2.6862915 -6,6 0.0033,3.3123376 2.687662,5.996693 6,6 z M 39,2 c 2.209139,0 4,1.790861 4,4 0,2.209139 -1.790861,4 -4,4 -2.209139,0 -4,-1.790861 -4,-4 0,-2.209139 1.790861,-4 4,-4 z"
         id="path33"
         style="fill:#151a6a;fill-opacity:1" />
      <path
         d="M 3,60 C 3.5522848,60 4,59.552285 4,59 4,58.447715 3.5522848,58 3,58 l 1,-2 h 117.75 l 1,2 H 11 c -0.552285,0 -1,0.447715 -1,1 0,0.552285 0.447715,1 1,1 h 111.75 c 0.69479,10e-4 1.34032,-0.358613 1.70511,-0.949937 0.36479,-0.591324 0.39655,-1.329597 0.0839,-1.950063 l -1,-2 C 123.20062,54.422733 122.50708,53.996301 121.75,54 H 49 V 27.816 C 50.19813,27.398589 51.000945,26.268758 51.000945,25 51.000945,23.731242 50.19813,22.601411 49,22.184 V 17 c 0,-0.552285 -0.447715,-1 -1,-1 -0.552285,0 -1,0.447715 -1,1 v 5 h -2.93 c -0.334279,5e-5 -0.646475,-0.16693 -0.832,-0.445 L 38.51,14.463 c -0.543677,-0.811892 -1.288583,-1.468939 -2.162,-1.907 -1.479659,-0.742356 -3.212251,-0.790697 -4.731,-0.132 -0.026,0.011 -0.05,0.026 -0.076,0.038 -0.162902,-1.095053 -0.918496,-2.010002 -1.963,-2.377 L 23.907,8.115 C 22.338836,7.5780076 20.631352,8.4080718 20.085,9.973 L 19.1,12.805 c -0.512914,-0.152758 -1.055176,0.125384 -1.230349,0.631081 -0.175173,0.505698 0.07885,1.059671 0.576349,1.256919 l -1.31,3.781 c -0.510747,-0.146838 -1.047135,0.131465 -1.221165,0.633599 -0.174031,0.502133 0.07509,1.05268 0.567165,1.253401 l -0.981,2.832 c -0.17044,0.488636 -0.209747,1.013427 -0.114,1.522 -1.085496,0.266596 -1.937672,1.106489 -2.22,2.188 -0.344668,1.54631 0.537941,3.10233 2.042,3.6 l 6.5,2.251 c 0.606776,0.209232 1.264661,0.218345 1.877,0.026 l -0.9,6.338 c -0.04537,0.323639 -0.171976,0.630513 -0.368,0.892 l -6.927,9.534 c -0.638235,0.844882 -0.921988,1.90528 -0.791,2.956 0.07413,0.530079 0.253299,1.040036 0.527,1.5 H 4 C 3.2429813,53.9965 2.5495618,54.422899 2.211,55.1 l -1,2 C 0.89834412,57.720466 0.93010366,58.45874 1.2948891,59.050063 1.6596746,59.641387 2.3052116,60.001023 3,60 Z M 41.407,54 C 41.794271,53.342699 41.99899,52.593904 42,51.831 V 41.9 c 0.0017,-1.468507 -0.536377,-2.886422 -1.512,-3.984 l -5.977,-6.727 c -0.236443,-0.265126 -0.310345,-0.637699 -0.193,-0.973 l 1.83,-5.487 0.842,1.178 c 0.9396,1.312321 2.453988,2.09148 4.068,2.093 H 47 v 26 z m -9,-39.741 c 1.602806,-0.689189 3.469156,-0.135635 4.437,1.316 l 4.726,7.089 c 0.55713,0.83577 1.495558,1.337266 2.5,1.336 H 48 c 0.552285,0 1,0.447715 1,1 0,0.552285 -0.447715,1 -1,1 h -6.942 c -0.96845,-0.0012 -1.877064,-0.46868 -2.441,-1.256 l -1.983,-2.776 -1.82,-2.547 c -0.201458,-0.306064 -0.554173,-0.477439 -0.919293,-0.44666 -0.365121,0.03078 -0.684169,0.258783 -0.831546,0.594254 -0.147377,0.33547 -0.09948,0.724678 0.124839,1.014406 l 1.524,2.135 -2.288,6.863 c -0.3468,1.017969 -0.117419,2.14385 0.6,2.945 l 5.972,6.721 c 0.648819,0.731207 1.006154,1.675439 1.004,2.653 v 9.931 C 40.02972,52.921771 39.229954,53.858434 38.148,54 37.592425,54.04123 37.044832,53.848859 36.637105,53.469225 36.229378,53.089591 35.998472,52.5571 36,52 V 45.7 C 35.9948,44.35175 35.539344,43.043878 34.706,41.984 L 27.034,33.393 C 26.06507,32.121283 25.755711,30.465805 26.2,28.93 l 1.888,-5.582 c 0.0033,-0.0069 0.007,-0.01355 0.011,-0.02 v -0.021 l 1.91,-5.647 0.007,-0.013 v -0.012 l 0.372,-1.1 c 0.304476,-1.020555 1.045203,-1.853919 2.023,-2.276 z m -5.888,7.465 -7.493,-2.6 1.309,-3.778 7.465,2.593 z m -4.547,-11.1 c 0.184201,-0.520882 0.752434,-0.7974281 1.276,-0.621 l 5.671,1.97 c 0.517401,0.183103 0.790534,0.749004 0.612,1.268 l -0.5,1.453 c -0.233231,0.387229 -0.417952,0.801673 -0.55,1.234 l -0.038,0.114 -7.45,-2.585 z m 0.391,20.239 -6.5,-2.249 c -0.521419,-0.156761 -0.847441,-0.673958 -0.764,-1.212 0.07153,-0.292415 0.270982,-0.537048 0.543,-0.666 0.236781,-0.119831 0.511925,-0.138944 0.763,-0.053 l 0.95,0.33 c 0.140709,0.04643 0.290024,0.06078 0.437,0.042 l 2.883,1.186 c 0.510863,0.210144 1.095356,-0.03364 1.3055,-0.5445 0.210144,-0.510863 -0.03364,-1.095356 -0.5445,-1.3055 l -3.7,-1.522 C 17.69496,24.85802 17.65319,24.85 17.611,24.845 17.54135,24.77553 17.482074,24.696381 17.435,24.61 17.31726,24.371701 17.29997,24.096147 17.387,23.845 l 0.98,-2.83 7.506,2.6 -1.591,4.706 c -0.02,0.067 -0.029,0.136 -0.047,0.2 -0.003,0.0056 -0.0063,0.0109 -0.01,0.016 l -0.589,1.709 c -0.180216,0.520716 -0.747703,0.797528 -1.269,0.619 z M 17,50.738 23.933,41.2 c 0.3916,-0.529337 0.644919,-1.148027 0.737,-1.8 l 0.7,-4.917 c 0.043,0.06 0.078,0.123 0.123,0.182 l 3.718,4.164 -0.511,2.937 c -0.05452,0.318435 -0.187142,0.618385 -0.386,0.873 L 20.26,53.076 c -0.648442,0.873691 -1.847743,1.124548 -2.792,0.584 -0.481637,-0.321831 -0.803475,-0.833499 -0.885,-1.407 -0.064,-0.540066 0.08565,-1.083756 0.417,-1.515 z m 12.9,-6.879 c 0.397373,-0.514076 0.662773,-1.117664 0.773,-1.758 l 0.236,-1.367 2.257,2.527 C 33.708567,43.958054 34.002168,44.816678 34,45.7 V 52 c 0.0035,0.704075 0.194732,1.394475 0.554,2 h -12.48 z"
         id="path35"
         sodipodi:nodetypes="csccccssscscccccscssscccccccccccsccscccccccccccccccscccccccccccccccccsssccccssccccccccsccccccccccccccccccccccccccccccccccccscccccccccccccccccccccccccccccccccc"
         style="fill:#151a6a;fill-opacity:1" />
    </g>
  </g>
</svg>
