<svg id="line" height="512" viewBox="0 0 64 64" width="512" xmlns="http://www.w3.org/2000/svg"><path d="m29 18.618a33.254 33.254 0 0 1 -11 1.882 1 1 0 0 0 -1 1v8.591a34.507 34.507 0 0 0 12 26.071z" fill="#c4a2fc"/><path d="m49 17.835a33.88 33.88 0 0 1 -8.375-5.116 1 1 0 0 0 -1.25 0 31.479 31.479 0 0 1 -8.375 5.116v39.928a34.138 34.138 0 0 0 8.658 4.676.987.987 0 0 0 .684 0 34.138 34.138 0 0 0 8.658-4.676z" fill="#c4a2fc"/><path d="m62 20.5a33.254 33.254 0 0 1 -11-1.882v37.544a34.507 34.507 0 0 0 12-26.071v-8.591a1 1 0 0 0 -1-1z" fill="#c4a2fc"/><g fill="#151a6a"><path d="m48 15.5a3 3 0 0 0 3-3v-8a3 3 0 0 0 -3-3h-44a3 3 0 0 0 -3 3v8a3 3 0 0 0 3 3h2v3h-2a3 3 0 0 0 -3 3v8a3 3 0 0 0 3 3h2v3h-2a3 3 0 0 0 -3 3v8a3 3 0 0 0 3 3h44a3 3 0 0 0 3-3v-8a3 3 0 0 0 -3-3h-2v-3h2a3 3 0 0 0 3-3v-8a3 3 0 0 0 -3-3h-2v-3zm0 22a1 1 0 0 1 1 1v8a1 1 0 0 1 -1 1h-44a1 1 0 0 1 -1-1v-8a1 1 0 0 1 1-1zm-40-2v-3h36v3zm40-15a1 1 0 0 1 1 1v8a1 1 0 0 1 -1 1h-44a1 1 0 0 1 -1-1v-8a1 1 0 0 1 1-1zm-40-2v-3h36v3zm-4-5a1 1 0 0 1 -1-1v-8a1 1 0 0 1 1-1h44a1 1 0 0 1 1 1v8a1 1 0 0 1 -1 1z"/><path d="m17 9.5h-9a1 1 0 0 1 0-2h9a1 1 0 0 1 0 2z"/><path d="m17 26.5h-9a1 1 0 0 1 0-2h9a1 1 0 0 1 0 2z"/><path d="m17 43.5h-9a1 1 0 0 1 0-2h9a1 1 0 0 1 0 2z"/></g></svg>