<svg id="Icons" height="512" viewBox="0 0 64 64" width="512" xmlns="http://www.w3.org/2000/svg"><g fill="#ff008c"><path d="m54.5 48h-3a1 1 0 0 1 -1-1v-3a1 1 0 0 0 -2 0v3a1 1 0 0 1 -1 1h-3a1 1 0 0 0 0 2h3a1 1 0 0 1 1 1v3a1 1 0 0 0 2 0v-3a1 1 0 0 1 1-1h3a1 1 0 0 0 0-2z"/><circle cx="55" cy="34.5" r="1.5"/><circle cx="44" cy="34.5" r="1.5"/><circle cx="44" cy="24.5" r="1.5"/><path d="m57.5 13h-16a5 5 0 0 0 -5 5v36a9 9 0 0 0 9 9h8a9 9 0 0 0 9-9v-36a5 5 0 0 0 -5-5zm-13.5 8a3.5 3.5 0 1 1 -3.5 3.5 3.5 3.5 0 0 1 3.5-3.5zm0 10a3.5 3.5 0 1 1 -3.5 3.5 3.5 3.5 0 0 1 3.5-3.5zm10.5 21h-2v2a3 3 0 0 1 -6 0v-2h-2a3 3 0 0 1 0-6h2v-2a3 3 0 0 1 6 0v2h2a3 3 0 0 1 0 6zm.5-14a3.5 3.5 0 1 1 3.5-3.5 3.5 3.5 0 0 1 -3.5 3.5zm0-10a3.5 3.5 0 1 1 3.5-3.5 3.5 3.5 0 0 1 -3.5 3.5z"/><circle cx="55" cy="24.5" r="1.5"/></g><path d="m44.5 13h-16a4 4 0 0 0 -.75-2.32l5.17-4.14a3 3 0 0 0 1.58.46 3 3 0 1 0 -3-3 2.93 2.93 0 0 0 .18 1l-5.5 4.4a3.9 3.9 0 0 0 -3.36 0l-5.5-4.4a2.93 2.93 0 0 0 .18-1 3 3 0 1 0 -3 3 3 3 0 0 0 1.58-.46l5.17 4.14a4 4 0 0 0 -.75 2.32h-16a3 3 0 0 0 -3 3v28a3 3 0 0 0 3 3h1a4.48 4.48 0 0 0 8.9 0h20.1a4.48 4.48 0 0 0 8.9 0h1a3 3 0 0 0 3-3v-28a3 3 0 0 0 -2.9-3zm-10-10a1 1 0 1 1 -1 1 1 1 0 0 1 1-1zm-21 1a1 1 0 1 1 1 1 1 1 0 0 1 -1-1zm11 7a2 2 0 0 1 2 2h-4a2 2 0 0 1 2-2zm-14.5 38a2.5 2.5 0 0 1 -2.45-2h4.9a2.5 2.5 0 0 1 -2.45 2zm29 0a2.5 2.5 0 0 1 -2.45-2h4.9a2.5 2.5 0 0 1 -2.45 2zm6.5-5a1 1 0 0 1 -1 1h-40a1 1 0 0 1 -1-1v-28a1 1 0 0 1 1-1h40a1 1 0 0 1 1 1z" fill="#173761"/><path d="m38.91 17.91a109.48 109.48 0 0 0 -28.82 0 2 2 0 0 0 -1.7 1.63 57.91 57.91 0 0 0 0 20.92 2 2 0 0 0 1.7 1.63 108.64 108.64 0 0 0 14.41.91 108.64 108.64 0 0 0 14.41-.95 2 2 0 0 0 1.7-1.63 57.91 57.91 0 0 0 0-20.92 2 2 0 0 0 -1.7-1.59zm-.26 22.19.13 1-.13-1a106.41 106.41 0 0 1 -28.3 0 56.2 56.2 0 0 1 0-20.2 106.41 106.41 0 0 1 28.3 0 56.2 56.2 0 0 1 0 20.2z" fill="#173761"/></svg>